<svg viewBox="0 0 200 200">
<g id="head">

<g id="hat-paypal"><path fill="#f7f2db" d="M132.09 27.46c-16-9.61-53.34-9.69-68.06 4.6-8.63 8.38-14.39 21.86-14.79 33.41 0 0 39.16 15.15 103.47-.23 0 0-4.6-28.17-20.62-37.78z"/><path fill="#131726" d="M132.85 26.16c-5.34-3.17-11.55-4.85-17.64-5.84a86.81 86.81 0 00-21.9-.73 65.37 65.37 0 00-20.47 5A37.07 37.07 0 0057.12 38a53.18 53.18 0 00-9.38 27.44 1.56 1.56 0 001.1 1.45 91.17 91.17 0 0017.29 4.25 195.52 195.52 0 0048.27 1.75 254.83 254.83 0 0038.71-6.24 1.53 1.53 0 001-1.84 74.2 74.2 0 00-2.57-10.3A65.57 65.57 0 00142.22 35a33.41 33.41 0 00-9.37-8.87c-1.65-1-3.16 1.59-1.51 2.59 6.24 3.8 10.44 10.18 13.51 16.65a81.58 81.58 0 015.7 16.78c.27 1.15.52 2.3.71 3.46l1.05-1.85a234.85 234.85 0 01-62.59 6.72 153.44 153.44 0 01-34.58-4.78 55.48 55.48 0 01-5.5-1.7l1.1 1.44A49.84 49.84 0 0158 42.19c3.62-6 8.31-11.1 14.65-14.24a57.22 57.22 0 0118.86-5.17 85.23 85.23 0 0120.81.13c6.53.85 13.3 2.45 19 5.84a1.5 1.5 0 001.53-2.59z"/><path fill="#3baacd" d="M49.48 65.57c36-9.3 71.07-8.92 102.47-.22 3.08.86-8.49 22.58-9.89 20.73-33-9.43-80.65 0-83.17-1.29-1.09-.55-8.13-10.59-9.41-19.22"/><path fill="#131726" d="M49.88 67a206.35 206.35 0 0166.29-6.31 182.51 182.51 0 0130.92 4.92 147.02 147.02 0 014.46 1.17c-.15.27-.33-.22-.19-.07s-.57-.5-.35-.33-.21-.3 0-.13 0-.14 0 .09v.74l-.16.73a36.69 36.69 0 01-2.61 6.63 70.39 70.39 0 01-3.86 7.09q-.41.65-.84 1.29c-.26.38-.61.88-.76 1s-.45.51-.68.77-.13.28 0 0c-.1.23-.17 0 0 0 .46 0 .84 0 1.15.28a3.3 3.3 0 00-1.52-.62c-1-.28-2.07-.54-3.11-.79q-3.11-.72-6.25-1.25c-4.3-.73-8.65-1.22-13-1.54-15.76-1.16-31.6-.1-47.29 1.51-4 .4-8.05 1.13-12.05 1.08h-.6c.41 0-.14 0 .3.08.28.06.18.19 0 0l-.41-.46c-.36-.42-.68-.88-1-1.33a47.44 47.44 0 01-5.58-10.41 30.86 30.86 0 01-1.65-6c-.3-1.9-3.19-1.09-2.89.8a39.07 39.07 0 004.76 12.7 45.89 45.89 0 002.91 4.66 12.85 12.85 0 002 2.45c1 .81 2.35.65 3.53.58 2.07-.13 4.13-.36 6.18-.58 15.59-1.61 31.23-3 46.92-2.26a148 148 0 0113.79 1.21q3.38.48 6.71 1.15c1.07.21 2.13.45 3.18.7a24 24 0 003.28.85c1 .07-.53-.35-.26-.23s.35.26.52.33a1.63 1.63 0 00.7.16 2.15 2.15 0 001.15-.37 7.27 7.27 0 001.82-1.89 47.86 47.86 0 004-6.45 67.27 67.27 0 003.63-7.91c.61-1.64 1.53-3.86 1-5.63-.44-1.48-1.88-1.64-3.19-2q-3.93-1.05-7.92-1.92-7.92-1.72-16-2.75a203.47 203.47 0 00-69 3.28c-2.91.63-5.8 1.32-8.69 2.06-1.86.48-1.07 3.38.8 2.9z"/><path fill="#253c7f" d="M109.8 38.47a2.5 2.5 0 00-.57-1.3 2.56 2.56 0 00-.72-.55l-.35-.2v-.5-.17a5.85 5.85 0 01.67.27 4 4 0 00-.86-3.61c-.93-1.06-2.62-1.52-4.79-1.52h-6.26a.88.88 0 00-.88.76l-2.62 16.58a.54.54 0 00.45.62h4l.11-.69h.69l-.35 2.22h3.06a.15.15 0 000-.08v-.15l.62-3.92v-.2a1.48 1.48 0 01.5-.89 1.53 1.53 0 011-.35h.5a8.07 8.07 0 002-.24 5 5 0 001.65-.74 4.47 4.47 0 001.35-1.33 6.69 6.69 0 00.77-2.13 5.33 5.33 0 00.03-1.88z"/><path fill="#159ad6" d="M108.85 36c0 .12 0 .25-.07.37-.83 4.26-3.66 5.72-7.28 5.72h-1.84a.9.9 0 00-.89.76l-.94 6-.27 1.69a.47.47 0 00.39.54h3.35a.78.78 0 00.77-.67v-.16l.62-3.91v-.21a.79.79 0 01.78-.67h.53c3.16 0 5.64-1.28 6.36-5a4.25 4.25 0 00-.65-3.77 3.33 3.33 0 00-.86-.69z"/><path fill="#252e64" d="M108 35.68a5.58 5.58 0 00-.81-.18 10.94 10.94 0 00-1.62-.12h-4.92a.79.79 0 00-.78.67l-1 6.63v.19a.91.91 0 01.89-.76h1.84c3.62 0 6.45-1.47 7.28-5.72 0-.12 0-.25.07-.37a4.15 4.15 0 00-.69-.28z"/></g>

<g id="hand-paypal"><path fill="#3baacd" d="M39.82 169.49c-.24-7.76.53-18.52.29-26.28 12.45-.3 24 .25 36.41-.06a3.1 3.1 0 012.51.9c.71.79.45 2.8.46 3.22.15 8.55.42 13.91.12 22.25-11.68.36-28.15.48-39.79-.03z"/><path fill="#131726" d="M41.32 169.49c-.25-8.76.54-17.52.29-26.28l-1.5 1.5c9-.21 17.9 0 26.86 0h6.58a29.33 29.33 0 013.38-.05c.73.07 1 .26 1.09 1 .16 1.6 0 3.3 0 4.92 0 1.9.09 3.8.13 5.7.09 4.42.08 8.83-.07 13.25l1.5-1.5c-13.25.4-26.55.57-39.79 0-1.93-.09-1.93 2.91 0 3 13.24.6 26.54.43 39.79 0a1.54 1.54 0 001.5-1.5q.21-6.33.08-12.64-.06-3.16-.14-6.31c0-1.72.11-3.52-.06-5.23-.47-4.86-6.48-3.63-9.89-3.6-4.82 0-9.64 0-14.46-.08-5.51 0-11-.08-16.53.05a1.52 1.52 0 00-1.5 1.5c.25 8.76-.54 17.52-.29 26.28.08 1.92 3.08 1.93 3.03-.01z"/><path fill="#131726" d="M40.11 164c12.73 0 25.64-.4 38.37-.4v-4.68l-38.37.46z"/><path fill="#69b2b1" d="M33.71 148.75c1-4.44 26.87-1.76 25.58 7.28a9.66 9.66 0 01-6.6 7.88c-4 1.15-16.41 1.57-19 .48a40 40 0 01.02-15.64z"/><path fill="#131726" d="M35.15 149.15c.06-.21-.06 0-.07.07s.16-.18.2-.2c-.26.16-.06 0 .08 0a2.85 2.85 0 01.3-.16c.05 0-.16.05.1 0a7 7 0 01.89-.27 17.2 17.2 0 014.41-.35 33.06 33.06 0 0111.17 2.1 13.23 13.23 0 014.06 2.3 3.79 3.79 0 011.54 2.91 8.22 8.22 0 01-3 5.65c-1.72 1.41-4 1.72-6.1 2a74.08 74.08 0 01-8.55.44c-1.94 0-4.26.15-6.11-.57l1 1.05a35.23 35.23 0 010-14.85c.4-1.88-2.49-2.69-2.89-.8a40.31 40.31 0 00-.39 13.53 14.89 14.89 0 00.45 2.75c.44 1.26 2 1.36 3.17 1.5a54.11 54.11 0 009.61.11c3-.17 6.31-.26 9.11-1.41 5.12-2.1 9.12-9.42 4.78-14.06-3.42-3.65-9.27-4.88-14-5.48a28 28 0 00-8.18 0c-1.72.29-4 1-4.45 2.9s2.39 2.69 2.87.84z"/><path fill="#f7f2db" d="M62.87 154.86c5.83 0 13 .11 13.12 0s.54-3.41 0-3.63c-.39-.15-8.92-.11-13 0z"/></g>

<g id="hand-commvault"><path fill="#1e273f" d="M40.25 170c-.22-14 .49-33.45.27-47.47 11.51-.55 22.7.14 34.66 0 1 0 1.76.25 1.85 2.51.06 1.58.28 30 0 45-10.79.7-26.03.96-36.78-.04z"/><path fill="#131726" d="M41.75 170c-.23-15.82.51-31.65.27-47.47l-1.5 1.5c7.88-.37 15.76-.17 23.64 0 3.72.06 7.55 0 11.2 0 .34 0 .11.13 0-.08a1.65 1.65 0 01.16.68v1.77c.12 8.78.13 17.56.12 26.34 0 5.78 0 11.56-.14 17.33l1.5-1.5a250.85 250.85 0 01-36.78-.05c-1.92-.17-1.91 2.83 0 3a250.85 250.85 0 0036.78.05 1.54 1.54 0 001.5-1.5c.2-11 .16-22 .11-32.94 0-3.63 0-7.27-.09-10.9a7.16 7.16 0 00-.73-4c-.74-1.1-1.93-1.23-3.14-1.22h-6.4c-9.25-.08-18.51-.43-27.76 0a1.52 1.52 0 00-1.5 1.5c.24 15.82-.5 31.65-.27 47.47.06 2.02 3.06 2.02 3.03.02z"/><path fill="#131726" d="M62.4 148.31c0 1.39 4.3 4.37 5.59 4.86a8.5 8.5 0 014.44 4 10.09 10.09 0 011.4 6.45c0 .57 0 2.24-2.4 2.27-2.18 0-18.52.31-20.29 0-4.44-.78-1.66-6.18-1.3-7.06.53-1.3 6.52-7.5 6.36-10.18"/><path fill="#3baacd" d="M61.78 126.15c3.32.79 8.47 5.17 8.47 11 0 3.4-3.75 12.46-14.94 10.61-5.77-1-9-7.33-8-13.1-.03.04 2.85-11.25 14.47-8.51z"/><path fill="#131726" d="M61.58 126.88c4.58 1.16 8.72 6.64 7.8 11.42a11.18 11.18 0 01-6.92 8.27 12.9 12.9 0 01-8.41.13 9.54 9.54 0 01-5.58-6.16 10.11 10.11 0 01.88-8.72 10.32 10.32 0 0112.23-4.94c.94.21 1.34-1.24.4-1.45-5.15-1.17-10.11.21-13.24 4.58a11.56 11.56 0 00-2 9.76 11.81 11.81 0 005 7.49 13.29 13.29 0 009.33 1.25 12.63 12.63 0 009.54-9c1.64-5.81-2.94-12.62-8.65-14.08a.75.75 0 00-.38 1.45z"/><path fill="#131726" d="M59.49 134.07a3.2 3.2 0 012.22 2.93 3.13 3.13 0 01-3.91 2.78 2.9 2.9 0 01-2.1-3.43 3.07 3.07 0 013.79-2.28z"/><path fill="#ffca30" d="M64.85 160.62a35.8 35.8 0 00-3.14-17.28c4.4 3.36 8.71 10 10.72 16.7a14.47 14.47 0 01-7.58.58z"/><path fill="#131726" d="M65.6 160.62A37.12 37.12 0 0062.36 143l-1.18.91c5.13 4 8.65 10.25 10.53 16.37l.52-.93a13.31 13.31 0 01-7.18.59c-.94-.17-1.35 1.28-.4 1.45a14.85 14.85 0 008-.59.75.75 0 00.52-.92c-2-6.35-5.59-12.9-10.91-17a.75.75 0 00-1.17.9 35.74 35.74 0 013 16.91c-.09.9 1.45.89 1.51-.07z"/><path fill="#f7f2db" d="M45.5 128.49a1.5 1.5 0 000-3 1.5 1.5 0 000 3zM72.09 128.85a1.5 1.5 0 000-3 1.5 1.5 0 000 3zM73 167.92a1.5 1.5 0 000-3 1.5 1.5 0 000 3zM44.25 168.1a1.5 1.5 0 000-3 1.5 1.5 0 000 3z"/><path fill="#69b2b1" d="M37.28 147.59c1-4.45 26.88-1.76 25.59 7.28a9.66 9.66 0 01-6.6 7.87c-4 1.15-16.41 1.57-19 .49a39.86 39.86 0 01.01-15.64z"/><path fill="#131726" d="M38.73 148c.06-.21-.06 0-.07.07s.16-.17.2-.2c-.26.16-.06.05.08 0l.3-.17h.1a7 7 0 01.89-.26 17.16 17.16 0 014.41-.36 33.31 33.31 0 0111.17 2.1 13.23 13.23 0 014.06 2.3 3.8 3.8 0 011.54 2.91 8.22 8.22 0 01-3 5.66c-1.71 1.41-4 1.72-6.09 2a78.84 78.84 0 01-8.55.44c-2 0-4.26.14-6.11-.58l1 1.05a35.23 35.23 0 010-14.85c.4-1.88-2.49-2.68-2.89-.79a40.24 40.24 0 00-.47 13.67 13.48 13.48 0 00.45 2.76c.44 1.25 2 1.35 3.17 1.49a54.11 54.11 0 009.61.11c3-.17 6.31-.26 9.11-1.4 5.12-2.11 9.12-9.42 4.78-14.06-3.42-3.66-9.27-4.88-14-5.48a28.38 28.38 0 00-8.18 0c-1.72.29-4 1-4.45 2.91s2.46 2.54 2.94.68z"/></g>

<g id="hat-commvault"><path fill="#1e273f" d="M130.82 27.06c-16-9.61-48.34-9.69-63.06 4.6A57.69 57.69 0 0051 61.07s38.15 15.15 102.47-.23c-.03 0-6.63-24.17-22.65-33.78z"/><path fill="#131726" d="M131.58 25.76a49.7 49.7 0 00-16.7-5.84A72.75 72.75 0 0095 19.19a57.33 57.33 0 00-18.72 4.94C70 27.07 65.1 31.68 60.86 37a59.49 59.49 0 00-11.34 23.68 1.56 1.56 0 001 1.84 86 86 0 0016.95 4.25 190.7 190.7 0 0047.73 1.75 255.47 255.47 0 0038.58-6.24 1.51 1.51 0 001-1.84 68.62 68.62 0 00-3.34-9.12A68.34 68.34 0 00141.06 34a39.8 39.8 0 00-9.48-8.21 1.5 1.5 0 00-1.51 2.59c10.53 6.4 17 18.49 21 29.83.34 1 .69 2 1 3.06l1-1.85c-20.36 4.85-41.31 7.47-62.26 6.72a147.62 147.62 0 01-34-4.78 53.11 53.11 0 01-5.37-1.7l1.05 1.84a56.48 56.48 0 019-20.26c3.8-5.41 8.51-10.39 14.33-13.55 10.79-5.81 24.18-6.91 36.18-5.2a48.81 48.81 0 0118.06 5.86 1.5 1.5 0 001.52-2.59z"/><path fill="#ee4d6b" d="M101.42 31.36L93.25 37l.75 9.51 9 4.26 8.18-5.64-.77-9.51zm8.19 13l-6.76 4.66-7.42-3.52-.63-7.81 6.76-4.66 7.44 3.56z"/><path fill="#ee4d6b" d="M102.19 47.13a.1.1 0 01-.14.09l-5.21-2.48a.29.29 0 01-.17-.24l-.45-5.57a.1.1 0 01.14-.09l5.22 2.48a.29.29 0 01.17.23zM106.9 37.23l-4.56 3.14a.4.4 0 01-.37 0L97 38a.09.09 0 010-.16l4.55-3.15a.42.42 0 01.38 0l5 2.38a.11.11 0 01-.03.16zM107.46 44.27l-4.13 2.85a.1.1 0 01-.15-.07l-.4-5a.1.1 0 01.14-.09l4.53 2.15a.09.09 0 01.01.16z"/><path fill="#1e273f" d="M52 53.6c35.71 5.59 63.5 6.54 101.12.29a2.11 2.11 0 012.17 1c3.19 5.2 4.74 13.66 5 16.77a1.52 1.52 0 01-1.18 1.61C111.49 83.8 58 76.75 46.76 73.9a3.2 3.2 0 01-2.44-2.06c-.6-1.16.12-11.91 4.79-17A3.36 3.36 0 0152 53.6z"/><path fill="#131726" d="M51.6 55c19.43 3 39 5 58.72 4.59a284.33 284.33 0 0029.87-2.32c2.67-.35 5.32-.72 8-1.12l4.13-.65c.49-.08 1.15-.32 1.59 0s.6.92.79 1.28a40.52 40.52 0 013.6 11.37c.13.7.84 3 .41 3.62-.16.23-1.43.31-1.74.38l-1.75.36c-1.31.27-2.63.52-3.95.77q-7.47 1.36-15 2.23a292.75 292.75 0 01-29.15 1.81 327 327 0 01-47-2.63 119.86 119.86 0 01-12.38-2.12 3.05 3.05 0 01-1.41-.52 2.91 2.91 0 01-.63-1c.19.43.07 0 .06.06s0-.79 0-1.09c0-.66 0-1.32.11-2a26.43 26.43 0 012.61-9.51c.59-1.3 1.72-3.51 3.52-3.41s1.91-2.85 0-3c-4.18-.34-6.5 5-7.62 8.24a30.69 30.69 0 00-1.74 9.9 5.11 5.11 0 00.8 3.09 5.47 5.47 0 003.64 2.19c1.88.44 3.78.78 5.68 1.1a298.9 298.9 0 0045.11 3.7c10.15.14 20.3-.17 30.41-1q7.93-.67 15.83-1.82c2.65-.39 5.3-.83 7.93-1.31 1.32-.24 2.64-.5 4-.76a20.28 20.28 0 004-.92c1.92-.86 1.86-2.75 1.62-4.51a54.12 54.12 0 00-1-5.35 46.89 46.89 0 00-1.93-6.24c-.69-1.76-1.53-4.44-3.24-5.47a4.37 4.37 0 00-3.19-.39c-1.54.24-3.08.5-4.62.73q-4.4.68-8.81 1.22c-5.38.67-10.77 1.21-16.18 1.58a297.82 297.82 0 01-61.94-2.68c-2.76-.38-5.52-.8-8.28-1.23-1.96-.31-2.77 2.58-.87 2.83z"/><path fill="#131726" d="M57.38 74.71c0-6.35 1.29-12.56 2-18.85a1.5 1.5 0 00-1.5-1.5 1.53 1.53 0 00-1.5 1.5c-.71 6.29-2 12.5-2 18.85a1.5 1.5 0 003 0zM74.31 76.53c0-6.58 1-13.1 1-19.68a1.5 1.5 0 00-3 0c0 6.58-1 13.1-1 19.68a1.5 1.5 0 003 0zM92 77.93c-.27-6.38 1-12.79 2.16-19 .36-1.89-2.53-2.69-2.89-.8C90 64.59 88.68 71.3 89 77.93c.08 1.92 3.08 1.94 3 0zM114.49 78.72V58.5a1.5 1.5 0 00-3 0v20.22a1.5 1.5 0 003 0zM136 77.09c0-6.76-1-13.48-1-20.24a1.5 1.5 0 00-3 0c0 6.76 1 13.48 1 20.24a1.5 1.5 0 003 0zM152 74.09c-.72-6.45-2.33-12.77-3-19.24a1.55 1.55 0 00-1.5-1.5 1.5 1.5 0 00-1.5 1.5c.67 6.47 2.28 12.79 3 19.24a1.54 1.54 0 001.5 1.5 1.51 1.51 0 001.5-1.5z"/><path fill="#1e273f" d="M93 20.16a5.7 5.7 0 003.15 4.7 11.42 11.42 0 005.13.8c2.86 0 6-.13 8.14-2.46a8.63 8.63 0 002-6.57 8.84 8.84 0 00-4-6.55 8.75 8.75 0 00-6.74-.85 10.15 10.15 0 00-6 4.12 10.33 10.33 0 00-1.45 8.1"/><path fill="#131726" d="M91.49 20.16a7.34 7.34 0 003 5.47c1.94 1.42 4.43 1.53 6.74 1.53a17 17 0 006-.81 8.43 8.43 0 004.65-4.27A10.61 10.61 0 00109.69 10c-3.36-3.14-8.43-3.15-12.33-1a11.7 11.7 0 00-5.57 12.91c.47 1.87 3.36 1.08 2.9-.8a8.68 8.68 0 013-8.72c2.46-1.95 6.24-2.65 9-.95a7.41 7.41 0 013.11 7.86 6 6 0 01-2.45 3.7 8.5 8.5 0 01-4.18 1.13c-3.15.17-8.33.34-8.68-4-.16-1.91-3.16-1.93-3 0z"/></g>

<g id="hat-elliemae"><path fill="#f7f2db" d="M102.94 50.77c5.23-.33 23.08-.16 35.85-4.88 4.62 3 9.46 7.82 10.17 11.7 0 0 9.44 9 7.75 13.8-.54 1.53-43.36 5.79-67.14 5a217.2 217.2 0 01-39.23-4.62c-3.49-.74 4.13-11.53 4.13-11.53s4.6-10.45 8.78-12.72c0-.05 23.28 4.29 39.69 3.25z"/><path fill="#131726" d="M102.94 52.27c12.2-.75 24.61-.68 36.25-4.93l-1.19-.15a27 27 0 018.3 8 9.21 9.21 0 011 2 3.94 3.94 0 00.64 1.54c.34.41.76.76 1.12 1.15a36.77 36.77 0 014.37 5.42 14.44 14.44 0 011.66 3.22 5.75 5.75 0 01.31 1.35v.61c0 .39-.16.45.21 0 .13-.18.12-.16.35-.21a3.71 3.71 0 00-.47.16 14.47 14.47 0 01-1.45.33c-1.57.32-3.16.55-4.75.77-5.06.68-10.15 1.18-15.24 1.63C121.21 74.2 108.29 75 95.39 75c-7.39 0-14.8-.43-22.16-1.16q-6.44-.65-12.83-1.69-3.39-.57-6.77-1.23l-1.92-.39c-.23 0-.88-.32-1.1-.24.16-.06.3.22.29.22.15.13 0-.08 0 .06a7.84 7.84 0 01.59-2.28A25.22 25.22 0 0153 65.4c.83-1.47 1.81-2.84 2.69-4.28.59-1 1-2.06 1.52-3.07a38.69 38.69 0 014.32-7A9.59 9.59 0 0164 48.77l-1.16.15a213.3 213.3 0 0028.38 3.35 106.38 106.38 0 0011.71 0c1.92-.12 1.93-3.12 0-3-10.31.63-20.75-.46-31-1.91-2.67-.38-5.34-.82-8-1.27-1.31-.23-2.21.47-3.16 1.33A23.08 23.08 0 0057 52.28c-1.47 2.31-2.48 4.85-3.86 7.2a77.94 77.94 0 00-4.06 6.9 9.3 9.3 0 00-1.14 4.27c.15 2.26 2.08 2.54 3.94 2.92q9.63 2 19.42 3c20.46 2.21 41.05 1.33 61.51-.42 7.08-.6 14.24-1.19 21.25-2.45 1.38-.25 3.52-.41 4.1-1.93 1.29-3.4-1.63-7.52-3.56-10.06a50.42 50.42 0 00-3.36-3.95c-.33-.35-.66-.71-1-1a1.7 1.7 0 00-.19-.19c.4-.21.3.9.24.08a3.82 3.82 0 00-.3-.86 19.33 19.33 0 00-4.7-6.59 34.29 34.29 0 00-3.42-3c-1.15-.88-2.3-2.11-3.81-1.66-2.7.8-5.33 1.66-8.09 2.23s-5.59 1-8.4 1.32c-4.75.54-9.52.8-14.29 1-1.44.06-2.89.09-4.33.18-1.95.12-1.95 3.12-.01 3z"/><path fill="#0068ac" d="M84.31 59.25h5.23v1.61h-3.13v1.68h2.11v1.61h-2.11v1.73h3.13v1.69h-5.23zM90.13 59.25H92v8.32h-1.87zM92.76 59.25h1.89v8.32h-1.89zM95.39 59.25h1.89v1.68h-1.89zm0 2.45h1.89v5.87h-1.89zM99.63 65.06c0 .51.1 1.39.85 1.39a1 1 0 001-.81l1.27.47a2.42 2.42 0 01-2.34 1.6c-1.81 0-2.63-1.46-2.63-3.09s.87-3.06 2.6-3.06 2.46 1.57 2.46 3.1v.4zm1.37-1.13c0-.55-.05-1.18-.7-1.18s-.71.64-.71 1.18z"/><path fill="#a7a8ab" d="M103.33 59.25h3l.9 4.66 1.06-4.66h2.87v8.32H109v-6.15l-1.44 6.14h-1.27L105 61.2v6.36h-1.61v-8.31zM114.54 63.45c0-.36-.15-.7-.49-.7s-.59.45-.62.77l-1.64-.34a2.14 2.14 0 012.33-1.63c1.14 0 2.32.49 2.32 1.79v3.27c0 .67.1.87.17.94h-2a4.78 4.78 0 01-.06-.53 1.86 1.86 0 01-1.43.67 1.61 1.61 0 01-1.68-1.8c0-1.58 1.77-2 3-2.07v-.37zm0 1.3c-.73.06-1.16.2-1.16 1.06 0 .41.21.63.55.63a.89.89 0 00.61-.37z"/><path fill="#a7a8ab" d="M118.19 65.06c0 .51.11 1.39.85 1.39a1 1 0 001-.81l1.28.47a2.44 2.44 0 01-2.35 1.6c-1.81 0-2.63-1.46-2.63-3.09s.87-3.06 2.61-3.06 2.45 1.57 2.45 3.1v.4zm1.41-1.13c0-.55-.06-1.18-.71-1.18s-.7.64-.7 1.18z"/><path fill="#a7a8ab" d="M121.47 61.6a.56.56 0 11-.56.56.57.57 0 01.56-.56zm0 1a.41.41 0 000-.82.41.41 0 000 .82zm-.08-.14h-.11v-.54h.21c.13 0 .2 0 .2.16s-.06.15-.12.15l.13.23h-.12l-.12-.22h-.06v.22zm0-.32h.1s.07 0 .07-.06 0-.06-.07-.06h-.1z"/></g>

<g id="hand-elliemae"><path fill="#ffca30" d="M57.17 157.7c7.62-3.64 6.14-11.83 3-16.43-4.56-6.63-18.85-5.27-20.32 6.34-.34 2.71 1.24 12.22 11.8 12.22 3.13 8.58 3.63 11.18 6.43 18.4l4.56 4.13-.58-5.36a19.26 19.26 0 001.41-2.84 16.43 16.43 0 00-3.19-1.57 29.67 29.67 0 011.88-4.43 40.31 40.31 0 01-3.95-2.16c1.75-2.91 1.95-3.73 1-5-.56-.81-3.43-2.63-2.04-3.3zm-4.62-11.11c-1.31 1.86-3.67.81-4-1.11a2.31 2.31 0 012.94-2.42c1.6.36 2 2.17 1.06 3.53z"/><path fill="#131726" d="M57.55 158.35a10.3 10.3 0 005.43-5.9 12.16 12.16 0 00-.17-7.38c-1.37-4.35-4.38-7.58-9-8.34a12.94 12.94 0 00-12 4.24 11.9 11.9 0 00-2.19 11.09c1.68 5.47 6.38 8.46 12 8.52l-.72-.58c1.87 5.14 3.46 10.37 5.33 15.51a12 12 0 001.31 3.24 12.67 12.67 0 001.27 1.15l3.27 3c.43.39 1.35.16 1.28-.53l-.31-3c-.06-.61-.1-1.24-.19-1.84v-.43c0 .21-.2.44.07 0 .43-.66 1.63-2.34 1.27-3.18-.15-.35-.59-.54-.9-.72a24.06 24.06 0 00-2.78-1.28l.44 1.1a40.32 40.32 0 011.88-4.43.77.77 0 00-.44-1.11 34.16 34.16 0 01-3.77-2.14l.27 1c.82-1.37 2.11-3.17 1.51-4.86a4.09 4.09 0 00-1-1.49c-.22-.2-1.71-1.67-1.77-1.63a.75.75 0 00-.76-1.3c-1.74 1 .06 2.74 1 3.58.51.47 1.21 1 1.23 1.73 0 1.09-.94 2.34-1.46 3.22a.74.74 0 00.27 1A36.08 36.08 0 0062 168.9l-.45-1.1a40 40 0 00-1.88 4.43.76.76 0 00.45 1.1 16.66 16.66 0 013 1.5l-.38-.65c0 .61-.89 1.63-1.2 2.27a2 2 0 00-.14 1.27l.48 4.64 1.28-.53L60 179a8.21 8.21 0 01-1.38-1.25 16.24 16.24 0 01-1.16-3.12c-1.8-5-3.34-10.05-5.15-15a.78.78 0 00-.73-.55c-4.53-.05-8.5-2.15-10.22-6.47a10.38 10.38 0 01.57-9.24 11 11 0 019.8-5.32 9.53 9.53 0 018.88 5.59 12.26 12.26 0 011.21 7.09 8.65 8.65 0 01-5.07 6.32c-.83.43-.07 1.73.8 1.3z"/><path fill="#131726" d="M51.9 146.21c-.09.12.07-.08 0 0l-.11.13-.14.13-.06.05c-.08.08 0 0 0 0l-.25.15c-.05.02-.12 0-.13.07s.15-.06.05 0h-.08c-.08 0-.2 0-.26.06h-.29c-.13 0 .16 0 0 0l-.28-.08h-.14.07-.06a2 2 0 01-.25-.14s-.14-.12-.06 0l-.06-.06a2.18 2.18 0 01-.22-.21s0-.07 0 0v-.06a2.75 2.75 0 01-.17-.29v-.07s0 .06 0 0a.25.25 0 000-.07 3.37 3.37 0 01-.1-.34v-.08-.09a.85.85 0 010-.16V145s0 .16 0 0l.09-.32v.06-.06a.8.8 0 01.08-.16l.1-.15.24-.24c.11-.09-.1.07 0 0L50 144l.14-.08h.07c.1-.05 0 0 0 0l.31-.11h.27s-.15 0 0 0H51a.81.81 0 01.17 0s-.18 0 0 0h.11a1.49 1.49 0 01.3.09c.14 0-.11-.06 0 0l.15.08.14.1-.06-.05.21.22v-.06s0 .07.06.09l.08.14s.1.18 0 .07 0 0 0 .08a.94.94 0 010 .16v.52c0 .05 0 .09 0 0a3.38 3.38 0 01-.08.34l-.06.17v-.06.11a4.05 4.05 0 01-.21.35.75.75 0 001.29.75 3.21 3.21 0 00.23-3.37 3.11 3.11 0 00-5.66 1.56 3.29 3.29 0 001.8 2.85 2.86 2.86 0 001.93.23 3 3 0 001.7-1.27.75.75 0 00-.26-1 .77.77 0 00-.94.3z"/><path fill="#131726" d="M52.15 136.37a17 17 0 00-2-4.87c-.74-1.05-2.29-2.09-3.47-1s-.78 3-.53 4.33a34.21 34.21 0 002.11 6.69c.24.59.5 1.18.78 1.75a4.51 4.51 0 001 1.53 1.68 1.68 0 002.57-.57c.41-.87-.89-1.64-1.29-.76-.26.56-.56-.19-.69-.45-.23-.46-.46-.92-.67-1.39-.43-1-.8-2-1.14-3-.63-1.91-1.44-4-1.34-6.07a2.23 2.23 0 01.14-.77c.06-.15.16-.24.13-.23.44-.16.84.27 1.09.59a13.91 13.91 0 011.88 4.59c.28.92 1.73.52 1.45-.4z"/><path fill="#69b2b1" d="M43.51 168.69c1.79 4.18 26.73-3.27 23.78-11.91a9.64 9.64 0 00-8-6.51c-4.14-.39-16.41 1.51-18.75 3a40 40 0 002.97 15.42z"/><path fill="#131726" d="M42.22 169.45c.74 1.57 2.81 1.89 4.35 1.93a24.21 24.21 0 007-1c4.79-1.31 10.31-3.51 13.56-7.44a7 7 0 001.77-6 11.16 11.16 0 00-6.28-7.29c-2.92-1.26-6.21-.89-9.28-.55a70.18 70.18 0 00-10 1.71 11.14 11.14 0 00-3.46 1.19c-1 .67-.82 1.87-.78 2.93a40 40 0 003 14.16 1.55 1.55 0 001.84 1 1.51 1.51 0 001.06-1.8 36 36 0 01-2.87-15l-.75 1.3a16.08 16.08 0 014.91-1.47c2.38-.5 4.79-.88 7.21-1.14a27.56 27.56 0 015.88-.24 8.1 8.1 0 016.15 4.57 4.61 4.61 0 01.54 1.73 3.23 3.23 0 01-.35 1.59 9.35 9.35 0 01-2.87 3.17 30.34 30.34 0 01-10.52 4.74 22.17 22.17 0 01-5.3.82 5.85 5.85 0 01-1.77-.19s-.3-.27-.43-.2c.09-.05.2.32 0-.07-.83-1.71-3.43-.19-2.61 1.55z"/></g>

<g id="hat-trinet"><path fill="#131726" d="M133.81 34.45c-16-9.61-55.35-9.69-70.07 4.6C55.12 47.43 48.35 60.91 48 72.46c0 0 43.16 15.15 107.47-.23-.05 0-5.65-28.17-21.66-37.78zm-16 32.74c-.56.66-32.37.47-32.37.47C84 58.89 90.26 54 99.55 53.42c19.18-1.1 18.72 13.22 18.24 13.77z"/><path fill="#131726" d="M134.56 33.15c-5.37-3.19-11.65-4.82-17.77-5.8a93 93 0 00-22.24-.83 69.57 69.57 0 00-21 4.67 37.2 37.2 0 00-8.32 4.62 41.89 41.89 0 00-8 8.41c-6 8.07-10.41 18.09-10.82 28.24a1.55 1.55 0 001.11 1.45 108.33 108.33 0 0018.65 4.25 214.77 214.77 0 0050.41 1.75 255.75 255.75 0 0039.2-6.24 1.53 1.53 0 001.05-1.84 80 80 0 00-2.83-10.3A69.7 69.7 0 00144.05 42a34.72 34.72 0 00-9.49-8.87c-1.65-1-3.16 1.59-1.51 2.59 6.29 3.83 10.61 10.19 13.86 16.65a87.25 87.25 0 016.24 16.78c.3 1.15.59 2.3.82 3.46l1.03-1.83a241.1 241.1 0 01-63.92 6.72 176.32 176.32 0 01-36.74-4.78c-2-.5-4-1-6-1.7l1.1 1.44c.35-8.61 3.86-17 8.58-24.12a44.22 44.22 0 017.87-9.22 31.4 31.4 0 017.28-4.51 61.8 61.8 0 0119.45-4.91A91.22 91.22 0 01114 30c6.54.85 13.37 2.39 19.09 5.79a1.5 1.5 0 001.47-2.64z"/><path fill="#131726" d="M116.73 66.13c.71-.62.62-.11.27-.28.16.08.37 0 0 0h-.49c-.86.07-1.73.1-2.59.12-2.6.09-5.19.12-7.78.14H85.43l1.44 1.1c-.57-3.74.57-7.43 3.76-9.64 3.67-2.53 8.49-3 12.82-2.71 3.26.2 6.77 1 9.3 3.23a10.61 10.61 0 013.35 5.39 7.28 7.28 0 01.35 2.28v.86s-.09-.34 0 0 .09-.19.08-.18c-1.15 1.55 1.45 3 2.59 1.51.8-1.08.29-3.42 0-4.56a13.6 13.6 0 00-3.77-6.9c-2.89-2.82-6.83-4.07-10.77-4.48-5-.52-10.67 0-15 2.71-4.73 2.94-6.44 8-5.62 13.34a1.5 1.5 0 001.45 1.1c9.49.06 19 .15 28.49-.16 1.39 0 3.82.26 4.94-.75 1.46-1.25-.67-3.4-2.11-2.12zM85.42 68.66c-.35 3.81-.15 5.61-.44 9.93"/><path fill="#131726" d="M83.92 68.66c-.3 3.3-.22 6.62-.44 9.93a1.5 1.5 0 001.5 1.5 1.53 1.53 0 001.5-1.5c.22-3.31.14-6.63.44-9.93a1.51 1.51 0 00-1.5-1.5 1.53 1.53 0 00-1.5 1.5zM117.79 68.19c.66 5.64.66 3.28 1.32 8.74"/><path fill="#131726" d="M116.29 68.19c.19 1.6.38 3.21.7 4.79.1.45.19.9.26 1.36l.16 1.08v.52c0 .33.09.66.13 1a1.54 1.54 0 001.5 1.5c.73 0 1.6-.67 1.5-1.5a59.89 59.89 0 00-.96-6.04c0-.17-.05-.34-.08-.51s0-.19 0-.29 0-.28 0 0c-.09-.62-.15-1.24-.23-1.86a1.54 1.54 0 00-1.5-1.5c-.73 0-1.59.67-1.5 1.5z"/><path fill="#f7f2db" d="M110.23 74.08a1.5 1.5 0 000-3 1.5 1.5 0 000 3zM101.21 74.54a1.5 1.5 0 000-3 1.5 1.5 0 000 3zM92.81 74.54a1.5 1.5 0 000-3 1.5 1.5 0 000 3z"/><path fill="#f26d2a" d="M100.49 35.87l6.77 4.35-6.77-7.22zm3.76 7.91l4-2.54L96.94 34v4.25a1.59 1.59 0 00.67 1.26l2.64 1.69zm-6.25-1a2.15 2.15 0 00-1 1.57v4.13l7-4.48-4-2.53z"/></g>

<g id="extra-trinet"><path fill="#1e273f" d="M45.76 71.28c-.1-15.28 17.09-36.94 57.32-36.43 36.91.46 52.82 26.39 53.57 37.23h6.28s-4-43.92-61.05-43.9c0 0-58.22-2.22-62.56 43z"/><path fill="#131726" d="M47.26 71.28c0-6.6 3.21-13.06 7.63-18C61.43 46 70.5 41.43 79.88 39a83 83 0 0119.53-2.6 73.12 73.12 0 0119.78 2 54.09 54.09 0 0126 15c4.51 4.78 8.56 10.79 9.8 17.29a7.67 7.67 0 01.18 1.4 1.53 1.53 0 001.5 1.5h6.28a1.51 1.51 0 001.5-1.5 44.8 44.8 0 00-5.16-16 52.31 52.31 0 00-27.58-24.31c-11-4.34-23.2-5.54-35-5a86.79 86.79 0 00-31.59 7.16 50.49 50.49 0 00-16.19 11.37A42.21 42.21 0 0038.78 65a55 55 0 00-1 6.24 1.51 1.51 0 001.5 1.5l6.44.08a1.5 1.5 0 000-3l-6.44-.08 1.5 1.5a41.44 41.44 0 017.74-20.78 43.75 43.75 0 0114.62-12.21c9.57-5.14 20.59-7.56 31.2-8.34a88.43 88.43 0 0130.87 2.78c12.31 3.55 23.22 11 29.89 22.05a46.86 46.86 0 015 11.13 40.3 40.3 0 011.26 5.38c0 .17.05.33.07.49.05.31 0 0 0-.16a1.25 1.25 0 010 .19 1.78 1.78 0 000 .3l1.5-1.5h-6.28l1.5 1.5c-.5-6.75-4.43-13.17-8.63-18.28a55.49 55.49 0 00-25.17-17c-13-4.37-27.51-4.41-40.84-1.76C73 37.13 62.63 41.5 54.83 49c-5.49 5.29-9.68 12.27-10.46 20a19.57 19.57 0 00-.11 2.3 1.5 1.5 0 003-.02z"/><path fill="#1e273f" d="M48 72s.93 41.18 0 42.87-14.61-.66-16.75-4.18C29.93 108.52 29.12 81 33 75.37c0 0 5.56-6.37 15-3.37z"/><path fill="#131726" d="M46.52 72q.18 8.33.3 16.64c.1 7.85.33 15.74 0 23.58 0 .51 0 1-.09 1.51 0 .11-.08.65 0 .36s0 .15 0 .21c-.24.35.41-.49.42-.52s.15 0 0 0-.52.11-.25.07a11.47 11.47 0 01-2.62 0 31.73 31.73 0 01-6.74-1.36 17.59 17.59 0 01-3-1.19 14.08 14.08 0 01-1.76-1.22c-.06 0-.08-.15-.12-.22.24.37.08.25 0 .08s-.11-.42-.16-.64a14 14 0 01-.24-1.61 80.45 80.45 0 01-.39-5.58 130.49 130.49 0 01.2-14.8c.28-3.7.75-7.68 2.14-10.88.19-.43-.11.07 0-.1a4.68 4.68 0 01.39-.38 9 9 0 011.51-1.18 12.53 12.53 0 016.54-2.08 15.07 15.07 0 015 .78c1.85.58 2.64-2.32.8-2.9a16.21 16.21 0 00-15.64 2.93c-2.38 2.06-2.84 5.68-3.26 8.63a105.18 105.18 0 00-.85 15.67 65.41 65.41 0 00.79 12.2c.77 3.89 6 5.19 9.28 6a28.78 28.78 0 007.09 1c1.4 0 3.2-.21 3.66-1.79a12.24 12.24 0 00.28-2.83c.07-1.58.09-3.16.11-4.73.05-4.5 0-9 0-13.49-.07-7.22-.05-14.47-.35-21.69v-.38c-.08-1.98-3.08-1.98-3.04-.09z"/><path fill="#1e273f" d="M152.18 72s-.93 41.18 0 42.87 14.61-.66 16.75-4.18c1.34-2.21 2.15-29.71-1.75-35.36 0 .04-5.55-6.33-15-3.33z"/><path fill="#131726" d="M150.68 72q-.21 9.25-.32 18.52c-.06 4.66-.11 9.33-.09 14 0 3.11-.07 6.26.23 9.35.1 1.08.23 2 1.29 2.59 1.7.89 4.16.43 6 .18a33.56 33.56 0 007.44-1.82c1.78-.68 4.09-1.62 5.07-3.41a10.55 10.55 0 00.79-3.73c.23-2 .33-4 .41-6.08a127.83 127.83 0 00-.35-15.78 53.8 53.8 0 00-1-6.93 11 11 0 00-1.87-4.62c-2.63-3.07-7.22-4.63-11.14-4.6a18.82 18.82 0 00-5.31.89c-1.84.58-1.05 3.48.8 2.9 4.54-1.43 9.64-.77 13.08 2.48l.37.37c.12.13-.14-.34.06.11a14.7 14.7 0 01.72 1.76 32.47 32.47 0 011.09 5.69 113.36 113.36 0 01.62 14.74c0 2.19-.11 4.39-.26 6.59a28.77 28.77 0 01-.47 4.09c0 .2-.1.4-.14.6s-.14.37 0 .09 0 0-.08.09a13.37 13.37 0 01-1.76 1.22 24.45 24.45 0 01-6.64 2.09 17.17 17.17 0 01-5.75.48h-.19c-.26 0 0 0 0 0l.38.5a.93.93 0 01-.06-.34c.06.53 0 0 0-.23-.58-7.22-.24-14.58-.15-21.82.07-6.51.38-13 .33-19.56v-.35c-.06-1.95-3.06-1.95-3.1-.06z"/><path fill="#131726" d="M120.18 147.79a37 37 0 0010.46.51 89.53 89.53 0 0012.54-1.46c3.44-.67 6.64-1.63 9.18-4.17 2.95-3 4.67-7 5.81-11a62.83 62.83 0 002.19-17.26 1.5 1.5 0 00-3 0 63.19 63.19 0 01-1.5 14.25c-.89 3.81-2.21 7.81-4.73 10.87-2.12 2.56-4.74 3.54-7.9 4.2a77.46 77.46 0 01-11.23 1.49c-3.58.23-7.49.53-11-.32-1.87-.46-2.67 2.43-.79 2.89z"/><path fill="#1e273f" d="M122.24 143.23c.86.21.3 6.85 0 7.3s-7.32.17-10.37.22c-3.6.07-4.64-5.92-.87-7.83 0 0 6.9-.77 11.24.31z"/><path fill="#131726" d="M121.84 144.67a1.33 1.33 0 01-.74-.56c.12.2-.08-.16-.07-.19a2 2 0 00.1.39c.07.28 0-.19 0-.09v.89a25.12 25.12 0 01-.09 2.88q0 .64-.12 1.29v-.06a1.43 1.43 0 000 .23c0 .13 0 .27-.07.4s-.15.34 0 .06a1.8 1.8 0 01.53-.62s.43-.11.21-.1h-.15c-.28.07.13-.05.15 0a5.13 5.13 0 00-.52 0c-2.19.14-4.39 0-6.58 0-1 0-2-.09-3 0 .23 0 .17 0 0 0a1.71 1.71 0 00-.3-.09c.21 0 .17.09 0 0s-.19-.13-.29-.18.09.07.1.08a1 1 0 01-.11-.1l-.21-.21-.1-.12s.14.24.08.1-.14-.2-.19-.3l-.11-.2c.1.19-.06-.15-.08-.22l-.1-.36c-.03-.12-.08-.5-.06-.29s0-.17 0-.24a2.54 2.54 0 010-.39c0-.15.05-.41 0-.11 0-.13 0-.26.08-.39s.07-.25.11-.38a1 1 0 000-.16c.07-.2-.11.23 0 0a6.77 6.77 0 01.41-.7v.07l.16-.18c.09-.11.2-.2.3-.3l.14-.12c-.11.09-.12.08 0 0s.3-.18.46-.26l-.76.21c1.3-.15 2.61-.22 3.92-.25s2.38 0 3.57 0c.61 0 1.22.09 1.83.17h.21l.45.08c.29 0 .58.11.86.18a1.53 1.53 0 001.85-1 1.52 1.52 0 00-1-1.84 34.52 34.52 0 00-11-.42 3.8 3.8 0 00-1.38.26 5.76 5.76 0 00-2.11 1.9 6.18 6.18 0 00-.79 5 4.88 4.88 0 003.38 3.56 9.91 9.91 0 002.37.13h2.64c1.68 0 3.37.06 5 0 1.27-.06 2.67-.15 3-1.65a22 22 0 00.41-4.52c0-1.46.15-3.75-1.55-4.32a1.5 1.5 0 00-.8 2.89z"/></g>

<g id="hand-loan"><path fill="#f7f2db" d="M40.69 174.93c-.3-19-.6-40.48-.9-59.51 15.87-.75 26.74.4 42.6-.34 1.44-.07 3.11 0 4 .94.75.81.58 2 .58 3 .2 20.94.54 35.53.16 56-14.89.87-31.85 1.54-46.69.22"/><path fill="#131726" d="M42.19 174.93l-.7-46.6-.2-12.91-1.5 1.5c13.71-.63 27.42.27 41.13-.28 1.12 0 3.27-.52 4.22.25.44.36.36.92.36 1.43v3.17c0 3.56.07 7.13.12 10.69.07 6.55.15 13.1.17 19.64q0 11.6-.16 23.18l1.5-1.5c-15.53.91-31.17 1.58-46.69.22-1.93-.17-1.92 2.83 0 3 15.52 1.36 31.16.69 46.69-.22a1.54 1.54 0 001.5-1.5c.26-14.13.15-28.25 0-42.37 0-3.88-.09-7.75-.13-11.63a18 18 0 00-.17-4.47A4.08 4.08 0 0085 113.7a20.45 20.45 0 00-4.56 0q-3 .12-6.06.15H64.02c-8.08-.11-16.15-.24-24.23.13a1.52 1.52 0 00-1.5 1.5q.36 23.29.7 46.6l.2 12.91c0 1.93 3 1.94 3 0z"/><path fill="#131726" d="M74.8 126.4h6.13a1.5 1.5 0 000-3H74.8a1.5 1.5 0 100 3zM74.44 132.4h6.49a1.5 1.5 0 000-3h-6.49a1.5 1.5 0 000 3zM46.63 139.71h34.55a1.5 1.5 0 000-3H46.63a1.5 1.5 0 000 3zM46.91 147.72h33.92a1.5 1.5 0 000-3H46.91a1.5 1.5 0 000 3zM64.83 156.45h16a1.5 1.5 0 000-3h-16a1.5 1.5 0 000 3z"/><path fill="#69b2b1" d="M33.88 153.8c1-4.44 26.87-1.75 25.58 7.28a9.66 9.66 0 01-6.6 7.88c-4 1.15-16.41 1.57-19 .49a40 40 0 01.02-15.65z"/><path fill="#131726" d="M35.32 154.2c.06-.21-.06 0-.07.07s.16-.17.2-.2c-.26.16-.06.05.08 0a2.85 2.85 0 01.3-.16h.1a9.13 9.13 0 01.89-.27 17.2 17.2 0 014.41-.35 33.06 33.06 0 0111.17 2.1 13.23 13.23 0 014.06 2.3 3.79 3.79 0 011.54 2.83 8.22 8.22 0 01-3 5.65c-1.72 1.42-4 1.73-6.1 2a74.08 74.08 0 01-8.55.44c-1.95 0-4.26.15-6.11-.57l1.05 1.05a35.23 35.23 0 010-14.85c.4-1.88-2.49-2.69-2.89-.8a40.31 40.31 0 00-.4 13.64 14.32 14.32 0 00.45 2.76c.44 1.25 2 1.35 3.17 1.49a54.11 54.11 0 009.61.11c3-.17 6.31-.26 9.11-1.41 5.12-2.1 9.12-9.42 4.78-14.06-3.42-3.65-9.27-4.88-14-5.47a28 28 0 00-8.18 0c-1.72.29-4 1-4.45 2.9s2.35 2.67 2.83.8z"/><path fill="#69b2b1" d="M68.91 170.86c-.1 3-1.07 6.21-.89 11 1.4-1.25 4.25-2.62 5.64-3.87 1.82 1.35 4 1.92 5.8 3.38.2-4-1.37-6.42-1.33-10.48"/><path fill="#131726" d="M68.16 170.86c-.06 1.62-.34 3.23-.55 4.84a36.89 36.89 0 00-.34 6.12.77.77 0 001.29.53c1.71-1.51 3.91-2.36 5.63-3.87l-.91.11c1.82 1.33 4 2 5.8 3.39.48.37 1.11-.15 1.13-.65.15-3.58-1.34-6.92-1.33-10.48a.75.75 0 00-1.5 0c0 3.56 1.48 6.91 1.33 10.48l1.13-.65c-1.79-1.38-4-2.06-5.81-3.38a.74.74 0 00-.9.12c-1.72 1.51-3.92 2.36-5.64 3.87l1.28.53a36.89 36.89 0 01.34-6.12c.21-1.61.49-3.22.55-4.84 0-1-1.46-1-1.5 0z"/><path fill="#ffca30" d="M68 170c1.73 3.58 7.21 4 10 1.37 1.88-1.74 2.79-6.19.29-8.77a7.44 7.44 0 00-8.36-1.09S65.2 164.24 68 170z"/><path fill="#131726" d="M67.34 170.41c1.42 2.85 4.87 3.85 7.82 3.23a6.65 6.65 0 003.84-2.18 7.6 7.6 0 001.59-4.33 6.72 6.72 0 00-1.44-4.71 7 7 0 00-4.42-2.33 7.34 7.34 0 00-6.22 1.65 6.7 6.7 0 00-1.89 3.14 8.17 8.17 0 00.77 5.53c.41.87 1.71.11 1.3-.76-1-2.14-1.1-4.63.46-6.41a6.64 6.64 0 01.76-.74c.19-.17 0 0 .16-.13l.2-.13a5.62 5.62 0 012.74-.76c2.85-.11 5.7 1.41 6.06 4.45a5.5 5.5 0 01-3.27 6c-2.53.93-5.83.33-7.11-2.26-.48-.88-1.78-.12-1.35.74zM45.17 122.23v8.65a1.15 1.15 0 001.3 1.12h3.37a.75.75 0 000-1.5h-2.53a5.51 5.51 0 01-.9 0l.27.27c0 .12 0 .11 0 0v-8.48a.75.75 0 00-1.5 0zM53.33 123a1.54 1.54 0 011.74.84 6.42 6.42 0 01.44 2.57c0 .65.08 1.3.07 2a3.08 3.08 0 01-.39 1.75 1.15 1.15 0 01-.48.35 2.06 2.06 0 01-1.18.06c-.75-.18-1-1-1.18-1.68-.06-.2-.1-.41-.14-.61 0 .16 0 .1 0 0v-.45-1.64a7.52 7.52 0 01.37-2.2 1.8 1.8 0 01.16-.38 2.08 2.08 0 01.2-.31 1.85 1.85 0 01.14-.14c.07-.06.07-.06 0 0l.11-.06s.21-.09.05 0c0 0 .3-.06.13 0a.78.78 0 00.75-.75.75.75 0 00-.75-.75c-1.93.24-2.43 2.29-2.6 3.92a11 11 0 00.13 3.66 3.76 3.76 0 001.78 2.7 3.32 3.32 0 003.16-.21c1.52-1.08 1.29-3.19 1.22-4.83a9 9 0 00-.63-3.61 3 3 0 00-3.06-1.63c-.99-.02-1 1.48-.04 1.4zM59.11 131.39a72.06 72.06 0 012.11-8.91l-1.38.18c1.3 2.91 1.85 6.1 2.76 9.14.28.92 1.73.52 1.45-.4-.95-3.17-1.56-6.46-2.91-9.49-.27-.61-1.22-.4-1.37.18a74.19 74.19 0 00-2.16 9.3.75.75 0 001.5 0zM66.33 131.6c-.23-3.13-.13-6.26-.33-9.38l-1.4.38c1.46 3.13 2.89 6.29 4.46 9.37a.76.76 0 001.4-.37q.11-4.69-.19-9.38c-.06-1-1.56-1-1.5 0q.3 4.68.19 9.38l1.4-.38c-1.57-3.09-3-6.24-4.46-9.38a.76.76 0 00-1.4.38c.2 3.12.1 6.25.33 9.38.07 1 1.57 1 1.5 0z"/><path fill="#131726" d="M59 129.68h3.17a.75.75 0 00.75-.75.76.76 0 00-.75-.75H59a.75.75 0 100 1.5z"/></g>

<g id="hat-sap"><defs><linearGradient id="linear-grad" x1="-581.42" x2="-581.38" y1="484.66" y2="484.66" gradientTransform="rotate(90 -24815.81 273889.38) scale(513.7)" gradientUnits="userSpaceOnUse"><stop offset="0" stop-color="#25b5e9"/><stop offset=".22" stop-color="#1da2dc"/><stop offset=".79" stop-color="#2a70b7"/><stop offset="1" stop-color="#2f63ad"/></linearGradient><linearGradient id="linear-grad-2" x1="-581.42" x2="-581.38" y1="484.64" y2="484.64" xlink:href="#linear-grad"/><linearGradient id="linear-grad-3" x1="-581.42" x2="-581.38" y1="484.65" y2="484.65" xlink:href="#linear-grad"/></defs><path fill="#f7f2db" d="M133.33 26.59C117.31 17 80 16.91 65.26 31.2c-8.62 8.37-14.38 21.85-14.78 33.41 0 0 39.15 15.15 103.46-.24 0 0-4.59-28.17-20.61-37.78z"/><path fill="#131726" d="M134.08 25.3c-5.34-3.18-11.55-4.86-17.64-5.84a86.82 86.82 0 00-21.9-.74 65.59 65.59 0 00-20.46 5 37.1 37.1 0 00-15.73 13.44A53.11 53.11 0 0049 64.61a1.53 1.53 0 001.1 1.44 89.4 89.4 0 0017.26 4.25 195 195 0 0048.27 1.75 255.86 255.86 0 0038.71-6.23 1.55 1.55 0 001-1.85 76 76 0 00-2.57-10.3 65.84 65.84 0 00-9.37-19.51 33.24 33.24 0 00-9.37-8.86c-1.65-1-3.16 1.58-1.51 2.59 6.24 3.79 10.44 10.17 13.51 16.65a81.92 81.92 0 015.71 16.77c.26 1.15.51 2.3.7 3.46l1-1.85A234.77 234.77 0 0191 69.65a153.46 153.46 0 01-34.58-4.79 54.49 54.49 0 01-5.49-1.7L52 64.61a49.77 49.77 0 017.27-23.29c3.62-6 8.3-11.09 14.65-14.24a57.16 57.16 0 0118.85-5.17 85.23 85.23 0 0120.81.13c6.54.86 13.3 2.45 19 5.85a1.5 1.5 0 001.5-2.59z"/><path fill="#3baacd" d="M50.72 64.61c36-10.25 71.06-9.83 102.46-.24 3.08.94-8.48 24.87-9.89 22.83-33-10.39-80.65 0-83.17-1.43-1.12-.6-8.12-11.65-9.4-21.16"/><path fill="#131726" d="M51.12 66.05a188 188 0 0167.51-6.84A165.94 165.94 0 01150.05 65l1.89.55a7.87 7.87 0 01.84.26c0 .07-.42-.24-.46-.28a2.25 2.25 0 00-.16-.3c.18.31 0-.16 0 .1v.48c0 .16-.05.53 0 .22a11.53 11.53 0 01-.29 1.42 45.47 45.47 0 01-2.53 7 82.81 82.81 0 01-3.73 7.56c-.53.94-1.07 1.87-1.69 2.76a6 6 0 01-.48.65l-.34.38c-.25.27-.09.06-.06.06-.31 0 .45-.09.47-.09.18 0 1.19.48.67.2a15.7 15.7 0 00-3.18-1.03 97.83 97.83 0 00-6.36-1.49 123.44 123.44 0 00-13.29-1.84C105.2 80.22 89 81.42 73 83.23c-4 .45-8 1.2-12.05 1.17h-.31c-.28 0 .39.12.11 0s.43.38.18.08a23.4 23.4 0 01-1.8-2.57 55 55 0 01-5.31-11.1 35.79 35.79 0 01-1.64-6.6c-.27-1.91-3.16-1.1-2.89.79a45.27 45.27 0 004.54 13.51c1.32 2.7 2.81 5.93 5 8.09.93.94 2.23.84 3.46.77 2.06-.12 4.12-.38 6.17-.62 15.94-1.82 32-3.35 48-2.48a130.66 130.66 0 0114.09 1.48c2.29.38 4.57.83 6.83 1.37 1 .25 2.1.52 3.14.81l1.54.45c1.14.35-.46-.29.58.2 1.87.88 3.2-1.18 4.09-2.5a56 56 0 003.74-6.79 80.82 80.82 0 003.46-8.2c.65-1.84 1.46-4 1.26-6a2.41 2.41 0 00-1.59-2.19 77 77 0 00-8-2.23q-8.16-2-16.5-3.26a186 186 0 00-69.64 3.36q-4.57 1.08-9.09 2.37a1.5 1.5 0 00.8 2.89z"/><path id="path5384" fill="#2a70b7" d="M112.81 48.21v1.52h.19v-.66h.26l.42.66h.32l-.45-.66a.42.42 0 00.41-.43c0-.3-.19-.43-.55-.43zm.23.2h.32c.16 0 .33 0 .33.22s-.18.25-.37.25H113zm.29-.76a1.33 1.33 0 101.33 1.35 1.33 1.33 0 00-1.33-1.35zm0 .21a1.11 1.11 0 11-1.09 1.14 1.07 1.07 0 011.09-1.14z"/><path fill="url(#linear-grad)" d="M101.46 37.67l-1.29 4.07a3.58 3.58 0 001.3.23 3.68 3.68 0 001.27-.22l-1.26-4.08z"/><path fill="url(#linear-grad-2)" d="M111.12 36.35h-.9v3.28h.9c1.2 0 2.15-.4 2.15-1.66s-.95-1.62-2.15-1.62z"/><path fill="url(#linear-grad-3)" d="M86.34 29.84V50.3h20.9l20.46-20.46zm25.2 12.59h-1.31v3.91h-6l-.59-1.87a7.07 7.07 0 01-4.3 0l-.62 1.88H95l.4-1.09-.15.13a5.58 5.58 0 01-3.5 1.18h-.21a9.45 9.45 0 01-4.61-1.23l1.26-2.5a5.55 5.55 0 003.37 1 1.78 1.78 0 001.31-.41 1 1 0 00.27-.63c0-.65-.91-1-2-1.31a9.48 9.48 0 01-2.77-1.26 3.21 3.21 0 01-1.4-2.84 3.49 3.49 0 011-2.38A5.64 5.64 0 0192 33.47a11.27 11.27 0 014.62 1.09L95.17 37a6.49 6.49 0 00-3-.8c-1.21-.07-1.83.37-1.84.83s1.15 1.1 2.25 1.45c1.66.53 3.77 1.23 4.09 3.27l3-8.09h3.53l3.55 9.68v-9.65h4.07c3.89 0 5.72 1.39 5.72 4.41.06 2.72-1.82 4.33-5 4.33z"/></g>


<g id="hat-diego"><path fill="#3baacd" d="M36.82 68.31C41 65.54 49.65 58.65 51 57.38S63.21 29.65 66.57 28.1c2.57-1.18 52.43-1.2 68.58 0 3.82-.79 10.07 17.45 15.61 27.6C157.21 59.39 167 66.31 167 66.31c0 5.08-46.92 9.73-64.34 9.73C73 76 34.28 70 36.82 68.31z"/><path fill="#131726" d="M37.2 69c2.94-2 5.75-4.16 8.55-6.34q2-1.54 3.92-3.12a16.46 16.46 0 002-1.67 16.46 16.46 0 002-3.8c1.16-2.46 2.29-4.94 3.44-7.4a137.38 137.38 0 017.8-15.35 12.61 12.61 0 011.5-2.06 2.74 2.74 0 01.45-.41c.12-.07 0 0 .27-.08a23.15 23.15 0 013.55-.33c11.94-.67 24-.5 35.93-.39 6.56.06 13.11.17 19.67.4 2.51.09 5 .19 7.54.35a5 5 0 012.19.29 7.51 7.51 0 011.99 2.32 71 71 0 014.85 9.37c1.73 3.77 3.39 7.58 5.2 11.32.67 1.39 1.35 3.67 2.71 4.49a132 132 0 015.15 3.17c3.08 2 6.11 4 9.12 6.12L166.6 67l-.37-.65a.47.47 0 01-.16.27 3.21 3.21 0 01-.86.62 16.19 16.19 0 01-3.15 1.26 84 84 0 01-10.4 2.33 321.23 321.23 0 01-28.69 3.46 248.21 248.21 0 01-26.86 1 372.3 372.3 0 01-37.44-3 215.6 215.6 0 01-15.41-2.43 47.84 47.84 0 01-4.59-1.09c-.41-.13-.82-.29-1.15-.43a.54.54 0 01-.2-.11s.19.6-.12.83c.77-.56 0-1.86-.76-1.3-2.31 1.67 3.43 2.89 4.14 3.06 5.26 1.22 10.64 2 16 2.7a340.29 340.29 0 0046.54 3.36 304.93 304.93 0 0033.76-2.41c5.75-.66 11.49-1.43 17.18-2.5 3.78-.71 7.81-1.4 11.31-3.06a4.13 4.13 0 002.26-1.92c.45-1.22-1.24-1.91-2.06-2.48a337.37 337.37 0 00-8.1-5.46c-1.54-1-3.08-2-4.65-2.91a4.23 4.23 0 01-1.76-1.38c-.42-.74-.79-1.51-1.16-2.27-3.1-6.26-5.62-12.8-8.93-19-1-1.88-2.14-4.08-3.87-5.42-1.25-1-3-.74-4.51-.82-11.16-.63-22.36-.7-33.53-.73-9.82 0-19.72-.17-29.52.51a14.81 14.81 0 00-2.9.33 4.56 4.56 0 00-2.23 2c-2.74 3.8-4.68 8.28-6.69 12.49s-4 8.66-6.07 12.94c-.28.57-.55 1.14-.87 1.69a1.75 1.75 0 01-.65.76c-2 1.73-4.11 3.35-6.2 5-2.45 1.9-4.91 3.79-7.48 5.51-.81.45-.06 1.75.75 1.25z"/><path fill="#f7f2db" d="M56.31 46.52c7.52 1.31 32.07 2.95 45.05 3.25a232.7 232.7 0 0044.57-4.08c1.63 3.5 3.56 7 4.83 10-11.67 3.62-34.85 4.44-52.3 4.44-7.14 0-46.33-2.74-46.49-3.4s4.34-10.21 4.34-10.21z"/><path fill="#131726" d="M56.11 47.24c4.57.79 9.23 1.13 13.84 1.51 6.36.53 12.72.94 19.09 1.28a232 232 0 0030.75-.16c8.83-.7 17.62-1.88 26.34-3.45l-.85-.35c1.55 3.29 3.34 6.48 4.75 9.83l.53-.92a78.07 78.07 0 01-13.38 2.58 233.6 233.6 0 01-16.71 1.34c-8.62.42-17.33.75-26 .38a594.85 594.85 0 01-39.68-2.83 19.3 19.3 0 00-2.25-.31c-.06 0-.18-.07-.23 0s.61.62.4.71c.17-.07.46-1.31.54-1.51 1.13-2.84 2.43-5.62 3.71-8.4.4-.87-.89-1.63-1.3-.75-1.16 2.51-2.3 5-3.37 7.58-.34.8-1.16 2.1-1.07 3 .07.67.62.79 1.17.9 2 .37 4.08.49 6.1.68a951.81 951.81 0 0032.99 2.31c8 .42 16 .26 24 0 6.55-.23 13.1-.61 19.62-1.32a85.7 85.7 0 0015.9-2.91.76.76 0 00.52-.93c-1.46-3.47-3.3-6.77-4.9-10.19a.77.77 0 00-.85-.34 240.46 240.46 0 01-40.15 4.08c-11 .11-22-.74-32.95-1.58-5.37-.42-10.81-.76-16.12-1.68-.98-.16-1.39 1.29-.44 1.45z"/><path fill="#131726" d="M68.33 33.94l-.43 5.33 2.52.21-1.84 22.42-2.52-.21-.44 5.31 15.28 1.28 2.78-2.36L86 38l-2.35-2.78zm5.86 28.41L76 39.94l4.11.34-1.81 22.41zM95.99 35.65L92 35.53l-.23.33-3.93 1.71-.13 4.6 2.46.07-.61 21.08-2.46-.07-.15 5.35 10.42.3.15-5.35-2.34-.07.81-27.83zM113.38 35.43l-10.92.3-2.46 2.65.77 28 2.65 2.5 10.92-.3 2.5-2.64-.76-28zm-2.29 27.92l-4.82.14-.62-22.49 4.83-.13zM136.14 49.63l-2.84-2.29-7.83.85-.89-8.25 4.8-.52.58 5.43 5.6-.6-.89-8.19-2.83-2.29-10.87 1.18-2.28 2.83 1.48 13.74L123 53.8l7.84-.85.95 8.83-4.8.52-.58-5.43-5.6.61.88 8.19 2.84 2.28 10.87-1.17 2.28-2.84-1.54-14.31z"/></g>



<g id="hat-united"><path fill="#dc274b" d="M36.82 68.31C41 65.54 49.65 58.65 51 57.38S63.21 29.65 66.57 28.1c2.57-1.18 52.43-1.2 68.58 0 3.82-.79 10.07 17.45 15.61 27.6C157.21 59.39 167 66.31 167 66.31c0 5.08-46.92 9.73-64.34 9.73C73 76 34.28 70 36.82 68.31z"/><path fill="#131726" d="M37.2 69c2.94-2 5.75-4.16 8.55-6.34q2-1.54 3.92-3.12a16.46 16.46 0 002-1.67 16.46 16.46 0 002-3.8c1.16-2.46 2.29-4.94 3.44-7.4a137.38 137.38 0 017.8-15.35 12.61 12.61 0 011.5-2.06 2.74 2.74 0 01.45-.41c.12-.07 0 0 .27-.08a23.15 23.15 0 013.55-.33c11.94-.67 24-.5 35.93-.39 6.56.06 13.11.17 19.67.4 2.51.09 5 .19 7.54.35a5 5 0 012.19.29 7.51 7.51 0 011.99 2.32 71 71 0 014.85 9.37c1.73 3.77 3.39 7.58 5.2 11.32.67 1.39 1.35 3.67 2.71 4.49a132 132 0 015.15 3.17c3.08 2 6.11 4 9.12 6.12L166.6 67l-.37-.65a.47.47 0 01-.16.27 3.21 3.21 0 01-.86.62 16.19 16.19 0 01-3.15 1.26 84 84 0 01-10.4 2.33 321.23 321.23 0 01-28.69 3.46 248.21 248.21 0 01-26.86 1 372.3 372.3 0 01-37.44-3 215.6 215.6 0 01-15.41-2.43 47.84 47.84 0 01-4.59-1.09c-.41-.13-.82-.29-1.15-.43a.54.54 0 01-.2-.11s.19.6-.12.83c.77-.56 0-1.86-.76-1.3-2.31 1.67 3.43 2.89 4.14 3.06 5.26 1.22 10.64 2 16 2.7a340.29 340.29 0 0046.54 3.36 304.93 304.93 0 0033.76-2.41c5.75-.66 11.49-1.43 17.18-2.5 3.78-.71 7.81-1.4 11.31-3.06a4.13 4.13 0 002.26-1.92c.45-1.22-1.24-1.91-2.06-2.48a337.37 337.37 0 00-8.1-5.46c-1.54-1-3.08-2-4.65-2.91a4.23 4.23 0 01-1.76-1.38c-.42-.74-.79-1.51-1.16-2.27-3.1-6.26-5.62-12.8-8.93-19-1-1.88-2.14-4.08-3.87-5.42-1.25-1-3-.74-4.51-.82-11.16-.63-22.36-.7-33.53-.73-9.82 0-19.72-.17-29.52.51a14.81 14.81 0 00-2.9.33 4.56 4.56 0 00-2.23 2c-2.74 3.8-4.68 8.28-6.69 12.49s-4 8.66-6.07 12.94c-.28.57-.55 1.14-.87 1.69a1.75 1.75 0 01-.65.76c-2 1.73-4.11 3.35-6.2 5-2.45 1.9-4.91 3.79-7.48 5.51-.81.45-.06 1.75.75 1.25z"/><path fill="#dc274b" d="M87.51 55.8a3.22 3.22 0 001-4.46 3.5 3.5 0 00-3.91-1.27 3.15 3.15 0 00-2 2.2 3.44 3.44 0 001.21 3.36s2.19 1.26 3.7.17z"/><path fill="#ffca30" d="M87.7 56.13a4.25 4.25 0 001.54-2 3.38 3.38 0 000-2.2 3.31 3.31 0 00-1.31-1.8 4 4 0 00-2.08-.62 3.37 3.37 0 00-3.52 2.65 3.71 3.71 0 001.4 3.84 3.77 3.77 0 004 .18c.39-.28 0-.93-.38-.65a3 3 0 01-3.07-.09A2.77 2.77 0 0183 52.8a2.62 2.62 0 012.26-2.49 2.81 2.81 0 013.34 3.3 3.27 3.27 0 01-1.31 1.87c-.36.28.02.93.41.65z"/><path fill="#dc274b" d="M119.48 55.8a3.21 3.21 0 001.06-4.46 3.51 3.51 0 00-3.92-1.27 3.16 3.16 0 00-1.94 2.2 3.41 3.41 0 001.21 3.36s2.11 1.26 3.59.17z"/><path fill="#ffca30" d="M119.67 56.13a4.21 4.21 0 001.55-2 3.38 3.38 0 000-2.2 3.31 3.31 0 00-1.31-1.8 4 4 0 00-2.08-.62 3.36 3.36 0 00-2.11.57 3.41 3.41 0 00-1.41 2.08A3.71 3.71 0 00115.7 56a3.77 3.77 0 004 .18c.4-.28 0-.93-.38-.65a3 3 0 01-3.07-.09A2.79 2.79 0 01115 52.8a2.64 2.64 0 012.27-2.49 3 3 0 013 1.36 2.91 2.91 0 01.31 1.94 3.27 3.27 0 01-1.31 1.87c-.36.28.01.93.4.65z"/><path fill="#dc274b" fill-rule="evenodd" stroke="#ffca30" stroke-miterlimit="10" d="M101.84 39c6.35 0 10.13 5.38 11.37 7.15l.25.35c1.68 2.24 3.21 3.15 4.68 2.78 2.13-.54 2.39-3.47 2.42-4.36v0h0a15.2 15.2 0 01-4.1-4.36 17.84 17.84 0 00-29.19 0 15.23 15.23 0 01-4.1 4.35h0v0c0 .89.29 3.83 2.41 4.37 1.47.37 3-.54 4.69-2.78l.24-.35c1.25-1.77 5-7.15 11.38-7.15zM89.25 57.21v-.05a2.23 2.23 0 00-1.89-.91 2.64 2.64 0 00-1.85.87 2.7 2.7 0 00-.67 2.15c.14 1.45 2.44 5.22 6.55 7.55a20.89 20.89 0 0021 0c4.11-2.33 6.41-6.1 6.55-7.55a2.7 2.7 0 00-.67-2.15 2.64 2.64 0 00-1.85-.87 2.23 2.23 0 00-1.89.91v.05c-3.52 4-8.35 6.52-12.59 6.52s-9.07-2.5-12.59-6.52z"/><path fill="#ffca30" d="M94.42 42.2c0 4.31-.1 15.95 0 16.12s5.94 2.81 7.31 4.43c1.71-1.35 7.48-4.08 7.56-4.28s-.26-16.32-.36-16.41-14.51.14-14.51.14z"/><path fill="#ffca30" stroke="#ffca30" stroke-miterlimit="10" stroke-width=".25" d="M89.28 42.29c-.62-.56-1-1-1-1.1h0a.28.28 0 01.24 0 4.65 4.65 0 001.5.57 5 5 0 00-.21-.62v-.05a7.55 7.55 0 00-.42-.95.14.14 0 010-.17.31.31 0 01.18-.09c.85.78 1.75 1.52 2.61 2.29l.18.17a.18.18 0 010 .2.17.17 0 01-.13 0l-.23-.21c-.71-.62-1.45-1.2-2.14-1.84.09.24.18.48.29.71a6.48 6.48 0 00.26.63c0 .07.06.28-.12.22a7.82 7.82 0 00-1.25-.35 25.75 25.75 0 002.08 2 .12.12 0 010 .14.26.26 0 01-.15.07zM91.35 38.32c-.28-.39 0-.49.33-.28s.81.62 3 2.38c.07.09 0 .26-.17.19l-.74-.6-.48.52a8 8 0 00.53.77c.07.1-.12.22-.18.15zm1.65 1.8l.17.22.45-.48-1.9-1.46c.18.26 1.06 1.46 1.28 1.72zM94 36.38c0-.21.21-.14.29-.1.7.64 1.32 1.34 2.1 2l-.3-.67c-.26-.6-.53-1.1-.84-1.68 0-.08 0-.16.11-.2a.15.15 0 01.16 0c.45 1 1 2.1 1.52 3.17v.06a.24.24 0 01-.06.15.28.28 0 01-.18 0c-.74-.7-1.52-1.37-2.26-2.08l1.38 2.63c0 .29-.2.25-.28.12zM98.35 34.46h0a.43.43 0 01.54.26s0 .11-.06.13-.24-.16-.44-.14h0c-.69.18-.37 3.47.81 3.22h0c.37-.09.11-.53.39-.6h0a.11.11 0 01.15.08v.21a.6.6 0 01-.47.52h0c-1 .2-1.36-1.14-1.46-1.81-.14-.5-.2-1.68.54-1.87zM102.23 36.46a2 2 0 00-.75 0v1.35s-.1.07-.13.07a.14.14 0 01-.14-.1l-.06-3.7c0-.11 0-.2.13-.2s.19 0 .19.07v2.22h.77V36v-2c0-.06 0-.16.09-.16s.19 0 .2.13l.07 3.74a.17.17 0 01-.18.16h0s-.1-.1-.11-.13a11.11 11.11 0 00-.08-1.28zM104.12 37.53l.25-1c.17-.72.21-1.2.39-1.92l.06-.26c.82.13.9.21.87.32s0 .11-.09.11l-.55-.13h0c-.13.54-.18.94-.28 1.5a5.47 5.47 0 00.58.15c.17 0 .22.36 0 .31l-.64-.16-.28 1.19c.11.06.79.08.73.31a.11.11 0 01-.13.1h0c-.19 0-.92-.15-.89-.3zM106.54 38.28c.16.11 0 .33.19.45s.45 0 .62-.22a2.13 2.13 0 00.2-1.59.93.93 0 01.15-.72.7.7 0 01.93-.32l.11.06c.11.07.19.14.1.26s-.46-.42-.88.19c-.2.27-.13.45-.11.8a2.05 2.05 0 01-.25 1.5c-.25.36-.52.5-.9.32l-.11-.06c-.15-.1-.36-.4-.27-.59 0 0 0 0 0 0a.17.17 0 01.22-.08zM110.17 38.48l.85-1.14-.33-.26c-.1-.14-.06-.31.19-.2s.64.48 1 .76 0 .35-.11.26l-.45-.35-1.42 1.84-.54.68h0c-.13.1-.27-.07-.21-.2.13-.25.85-1.09 1.02-1.39zM111.11 41.49l.74-.71c.54-.52.83-.9 1.37-1.42l.19-.18c.62.55.65.66.57.74s-.11.06-.14 0l-.4-.4s0 0 0 0c-.4.38-.65.7-1 1.11a4.27 4.27 0 00.41.44c.12.13 0 .43-.18.26l-.45-.48-.87.85c.06.11.61.5.45.66a.14.14 0 01-.17 0h0c-.14-.13-.69-.62-.59-.73zM114.05 42.55l1-.87.42-.39h0c.1-.07.21 0 .27.09a1 1 0 01-.26 1.46 1.14 1.14 0 01-1.1.23c.17.63-.4 1.27-.86 1.64h-.19c-.06 0-.06-.07 0-.14.29-.27 1.08-1 .71-1.5h0c-.49.32-.92.73-1.41 1.07a.16.16 0 01-.17-.21c.24-.28 1.35-1.18 1.59-1.38zm.28.15a.81.81 0 001-.06c.22-.18.59-.62.36-.91 0 0-.12-.15-.15-.12zM95.16 67.43l-.11-.05c-.58-.29-.1-1.8.46-3.53l.07-.24v0c0-.11.3 0 .3.1s-1.3 3.29-.63 3.49c.17.06.33-.2.38-.33.23-.6.7-2 1-2.93 0-.07.09-.06.17 0s.14.06.12.15c-.28.87-.63 1.73-.92 2.64-.15.39-.33.88-.84.7zM98.24 64.68c0-.2.33-.28.39 0l.58 3c0-.22.29-1.48.4-2a5.93 5.93 0 01.21-.9c0-.06.07 0 .15 0s.13 0 .1.15c-.1.53-.26 1.05-.37 1.58l-.39 2c-.06.1-.2 0-.23-.08s-.06-.22-.67-3.31l-.55 3.14c0 .16-.29.1-.27 0zM101.59 64.91c0-.11.07-.11.18-.11s.15.07.14.22v.09l-.19 3.56c0 .23-.3.25-.3.1zM103.55 64.9c-.31.06-.46.07-.48 0s0-.24.53-.27h.43c.11 0 .31 0 .32.14a.1.1 0 01-.09.11h-.43l.47 3.27c0 .05-.1.09-.13.09h-.14zM105.48 64.69a.18.18 0 01.13-.22l.79-.21s.15 0 .16.07h0c0 .1-.1.18-.18.2l-.61.16.46 1.66.52-.22h0c.24-.06.2.19 0 .27l-.48.21.32 1.32.27-.07c.33-.08.55-.26.62 0s-1.07.44-1.1.35zM108.84 66.54c-.17-.42-1-2.33-1.15-2.74v0a.29.29 0 010-.32h0a.86.86 0 01.61-.06 2.72 2.72 0 011.4 1.69c.35 1 .5 1.92-.25 2.35-.14.08-.26.1-.33-.08zm-.12-1l.69 1.64c.56-.34.32-1.36.1-1.88s-.81-1.85-1.47-1.57h0c.07.27.57 1.5.68 1.77z"/><path fill="#dc274b" fill-rule="evenodd" d="M102.33 49.44s-.23.12-.31.24-.1.29 0 .35.26 0 .29-.21.06-.36 0-.38zm-1.33.38c0 .19.17.27.28.21s.09-.22 0-.35-.24-.26-.29-.24 0 .26 0 .38zm.69 1.93A2.79 2.79 0 00102 51h-.66a3 3 0 00.35.75zm.12-2.88l.54-.94.42.94h.7a2 2 0 00-.6 1.39v.43a2.23 2.23 0 01-.09.49l.7.54c.09.08.08.05 0 .13s-.45.32-.5.35-.11.14-.09.22.1.09.26 0 .49-.22.77-.34a1.55 1.55 0 01.64-.09v-.53h-1v-1.65l-.18-.29.46-.82.46.82-.19.29v.88h.54v-.88l-.19-.29.46-.82.46.82-.18.29v.88h.53v-.88l-.18-.29.46-.82.46.82-.18.29v1.68h-1v.78a1.77 1.77 0 01.46 1 .52.52 0 01-.2.43 1.16 1.16 0 010 .55 1.59 1.59 0 01-.31.57v4c0 .28-.63.25-.63 0v-3.88a3.92 3.92 0 00-1.33-.7 3.32 3.32 0 00-.58 1 .42.42 0 00.49-.11.32.32 0 01.38-.06c.11.06.13.09.09.25a2.78 2.78 0 00-.1.6c0 .19.21.15.37.16s.37.38.34.58a6.94 6.94 0 00-.12.88 4 4 0 000 .67 1.81 1.81 0 01.07.49c0 .25-.17.29-.33.13l-2.36-2.5c-.14.47.46 1.29.66 1.54s.18.43 0 .6-.5.27-.56.43.15.63.62 1.22-.53 1-1.12 1.11-.6-.29-.56-.52a2.08 2.08 0 000-.55 1.89 1.89 0 00-.45-.8c-.25-.33-.25-.64-.14-1.4a8.08 8.08 0 00.08-1.25h-.65c-.38 0-.7-.23-.72-1.16s0-3.12-.11-3.34-.31-.28-.41-.3a.13.13 0 010-.24c.27-.14.6-.47.48-.68s-.61-.17-.93 0a3.16 3.16 0 00-.75.59c-.09.1-.16.1-.15 0a7 7 0 00-.11-.79 3.37 3.37 0 00-.25-.59c-.06-.09 0-.12.08-.09l.47.17a.39.39 0 00.45-.21c.08-.18.25-.56.34-.72s.23-.13.34-.11a3.27 3.27 0 01.33.14h.22a.64.64 0 00.14-.2c.07-.13.14-.07.15 0 .32 1.88 1.13 2 1.13 2a7.84 7.84 0 01-.48.94 1.24 1.24 0 00-.11.42 12.68 12.68 0 00.13 1.83c.09.46.37.28.46.14s.36-.72.36-.72a.81.81 0 00.07-.29c0-.13-.23-.42-.28-.5a1 1 0 01-.25-.71 1.21 1.21 0 01.54-.86.35.35 0 00.12-.36 5.16 5.16 0 00-.6-1.33l-.52-.79h.71l.46-1 .5 1zm2.8 4.78v-.54a.59.59 0 00-.5-.22c-.35 0-.56.1-.56.2s.31.56 1.06.56zm-9.18-6.8h12.82v.87H95.43zm0-.45v-3.48h12.82v3.48z"/><path fill="#ffca30" fill-rule="evenodd" d="M105.94 46.47v-.61h-1v-.4h.79v-1.74H105l-.24-.48-.25.48h-.72v1.74h.79v.4h-1.89v-.4h.79v-1.74h-.73l-.24-.48-.25.48h-.72v1.74h.79v.4h-1.93v-.4h.79v-1.74h-.72l-.25-.48-.24.48h-.73v1.74h.79v.4h-1.48L97 45.51l.31 1zM116.41 51.33a1.32 1.32 0 00.6.32.63.63 0 01.19.18 4.46 4.46 0 01.49 1.58.29.29 0 01-.38.29 1.94 1.94 0 01-1.32-.64c-.15-.14-.65-.73-.49-1.12a2.34 2.34 0 01.6-.79l.18-.14a.52.52 0 00.13.32zm2.42-.43c0 .08-.07.26-.38.36a4.31 4.31 0 01-1.09.23c-.36 0-.89-.11-.89-.45a.24.24 0 01.12-.23 2.3 2.3 0 011.24-.32 3 3 0 01.84.14.33.33 0 01.16.27zm.88 3.72a6.05 6.05 0 000-1.61c0-.17.25-.38.31-.47a2.3 2.3 0 01.15-.23c0-.09.12 0 .12 0a2.72 2.72 0 01.11.75 2.41 2.41 0 01-.62 1.67c-.06.1-.1.03-.07-.11zm-.15-2.12a4.19 4.19 0 00-.51-1.06.38.38 0 010-.28v-.22c0-.06.07-.11.11-.09a2.09 2.09 0 01.9.89.53.53 0 010 .35c0 .1-.2.42-.33.49s-.15-.01-.17-.08zm-1.84 2.81a4.75 4.75 0 00.21-1.72 5.05 5.05 0 00-.42-1.61c-.09-.26.06-.28.2-.31l.41-.1.38-.12a.37.37 0 01.43.14 4.25 4.25 0 01.64 2.31c0 .42-.12 1.24-.44 1.42a2.93 2.93 0 01-1.3.35h-.06c-.15 0-.15-.09 0-.36zm-2.48-2.23a2.11 2.11 0 01.05-.43c0-.11.1-.12.14 0a2.57 2.57 0 00.64.81 2.34 2.34 0 001.53.55c.07 0 .11.12.11.23a2.69 2.69 0 01-.33 1.23c-.07.08-.14.18-.29.13a2.61 2.61 0 01-1.85-2.48zM84.43 51.33a1.31 1.31 0 00.61.32.63.63 0 01.19.18 4.91 4.91 0 01.49 1.58.3.3 0 01-.39.29 1.93 1.93 0 01-1.33-.64c-.15-.14-.66-.73-.49-1.12a2.22 2.22 0 01.6-.79l.19-.15a.6.6 0 00.13.32zm2.42-.43c0 .08-.07.26-.38.36a4.22 4.22 0 01-1.09.23c-.35 0-.88-.11-.88-.45a.24.24 0 01.12-.23 2.24 2.24 0 011.23-.32 2.84 2.84 0 01.84.14.33.33 0 01.16.27zm.88 3.72a6.05 6.05 0 000-1.61c0-.17.26-.38.31-.47l.15-.23c.04-.07.12 0 .12 0a2.72 2.72 0 01.11.75 2.41 2.41 0 01-.62 1.67c-.05.1-.1.03-.07-.11zm-.14-2.12a4.52 4.52 0 00-.52-1.06.44.44 0 010-.28 1.7 1.7 0 000-.22c0-.11.06-.11.11-.09a2.09 2.09 0 01.9.89.47.47 0 010 .35c0 .1-.2.42-.33.49s-.14-.01-.16-.08zm-1.85 2.81a4.75 4.75 0 00.26-1.72 5.4 5.4 0 00-.46-1.59c-.09-.26 0-.28.19-.31l.42-.1.37-.12a.37.37 0 01.43.14 4.22 4.22 0 01.65 2.31c0 .42-.12 1.24-.44 1.42a3 3 0 01-1.31.35c-.15 0-.15-.09-.06-.36zm-2.48-2.23a3.2 3.2 0 010-.43c0-.11.11-.12.14 0a2.67 2.67 0 00.65.81 2.33 2.33 0 001.52.55c.08 0 .12.12.12.23a2.6 2.6 0 01-.34 1.23c-.07.08-.13.18-.28.13a2.61 2.61 0 01-1.86-2.48z"/></g>




</g>
</svg>