<svg viewBox="0 0 200 200">
<g id="head">

<g id="hat-paypal"><path fill="#f7f2db" d="M132.09 27.46c-16-9.61-53.34-9.69-68.06 4.6-8.63 8.38-14.39 21.86-14.79 33.41 0 0 39.16 15.15 103.47-.23 0 0-4.6-28.17-20.62-37.78z"/><path fill="#131726" d="M132.85 26.16c-5.34-3.17-11.55-4.85-17.64-5.84a86.81 86.81 0 00-21.9-.73 65.37 65.37 0 00-20.47 5A37.07 37.07 0 0057.12 38a53.18 53.18 0 00-9.38 27.44 1.56 1.56 0 001.1 1.45 91.17 91.17 0 0017.29 4.25 195.52 195.52 0 0048.27 1.75 254.83 254.83 0 0038.71-6.24 1.53 1.53 0 001-1.84 74.2 74.2 0 00-2.57-10.3A65.57 65.57 0 00142.22 35a33.41 33.41 0 00-9.37-8.87c-1.65-1-3.16 1.59-1.51 2.59 6.24 3.8 10.44 10.18 13.51 16.65a81.58 81.58 0 015.7 16.78c.27 1.15.52 2.3.71 3.46l1.05-1.85a234.85 234.85 0 01-62.59 6.72 153.44 153.44 0 01-34.58-4.78 55.48 55.48 0 01-5.5-1.7l1.1 1.44A49.84 49.84 0 0158 42.19c3.62-6 8.31-11.1 14.65-14.24a57.22 57.22 0 0118.86-5.17 85.23 85.23 0 0120.81.13c6.53.85 13.3 2.45 19 5.84a1.5 1.5 0 001.53-2.59z"/><path fill="#3baacd" d="M49.48 65.57c36-9.3 71.07-8.92 102.47-.22 3.08.86-8.49 22.58-9.89 20.73-33-9.43-80.65 0-83.17-1.29-1.09-.55-8.13-10.59-9.41-19.22"/><path fill="#131726" d="M49.88 67a206.35 206.35 0 0166.29-6.31 182.51 182.51 0 0130.92 4.92 147.02 147.02 0 014.46 1.17c-.15.27-.33-.22-.19-.07s-.57-.5-.35-.33-.21-.3 0-.13 0-.14 0 .09v.74l-.16.73a36.69 36.69 0 01-2.61 6.63 70.39 70.39 0 01-3.86 7.09q-.41.65-.84 1.29c-.26.38-.61.88-.76 1s-.45.51-.68.77-.13.28 0 0c-.1.23-.17 0 0 0 .46 0 .84 0 1.15.28a3.3 3.3 0 00-1.52-.62c-1-.28-2.07-.54-3.11-.79q-3.11-.72-6.25-1.25c-4.3-.73-8.65-1.22-13-1.54-15.76-1.16-31.6-.1-47.29 1.51-4 .4-8.05 1.13-12.05 1.08h-.6c.41 0-.14 0 .3.08.28.06.18.19 0 0l-.41-.46c-.36-.42-.68-.88-1-1.33a47.44 47.44 0 01-5.58-10.41 30.86 30.86 0 01-1.65-6c-.3-1.9-3.19-1.09-2.89.8a39.07 39.07 0 004.76 12.7 45.89 45.89 0 002.91 4.66 12.85 12.85 0 002 2.45c1 .81 2.35.65 3.53.58 2.07-.13 4.13-.36 6.18-.58 15.59-1.61 31.23-3 46.92-2.26a148 148 0 0113.79 1.21q3.38.48 6.71 1.15c1.07.21 2.13.45 3.18.7a24 24 0 003.28.85c1 .07-.53-.35-.26-.23s.35.26.52.33a1.63 1.63 0 00.7.16 2.15 2.15 0 001.15-.37 7.27 7.27 0 001.82-1.89 47.86 47.86 0 004-6.45 67.27 67.27 0 003.63-7.91c.61-1.64 1.53-3.86 1-5.63-.44-1.48-1.88-1.64-3.19-2q-3.93-1.05-7.92-1.92-7.92-1.72-16-2.75a203.47 203.47 0 00-69 3.28c-2.91.63-5.8 1.32-8.69 2.06-1.86.48-1.07 3.38.8 2.9z"/><path fill="#253c7f" d="M109.8 38.47a2.5 2.5 0 00-.57-1.3 2.56 2.56 0 00-.72-.55l-.35-.2v-.5-.17a5.85 5.85 0 01.67.27 4 4 0 00-.86-3.61c-.93-1.06-2.62-1.52-4.79-1.52h-6.26a.88.88 0 00-.88.76l-2.62 16.58a.54.54 0 00.45.62h4l.11-.69h.69l-.35 2.22h3.06a.15.15 0 000-.08v-.15l.62-3.92v-.2a1.48 1.48 0 01.5-.89 1.53 1.53 0 011-.35h.5a8.07 8.07 0 002-.24 5 5 0 001.65-.74 4.47 4.47 0 001.35-1.33 6.69 6.69 0 00.77-2.13 5.33 5.33 0 00.03-1.88z"/><path fill="#159ad6" d="M108.85 36c0 .12 0 .25-.07.37-.83 4.26-3.66 5.72-7.28 5.72h-1.84a.9.9 0 00-.89.76l-.94 6-.27 1.69a.47.47 0 00.39.54h3.35a.78.78 0 00.77-.67v-.16l.62-3.91v-.21a.79.79 0 01.78-.67h.53c3.16 0 5.64-1.28 6.36-5a4.25 4.25 0 00-.65-3.77 3.33 3.33 0 00-.86-.69z"/><path fill="#252e64" d="M108 35.68a5.58 5.58 0 00-.81-.18 10.94 10.94 0 00-1.62-.12h-4.92a.79.79 0 00-.78.67l-1 6.63v.19a.91.91 0 01.89-.76h1.84c3.62 0 6.45-1.47 7.28-5.72 0-.12 0-.25.07-.37a4.15 4.15 0 00-.69-.28z"/></g>

<g id="hand-paypal"><path fill="#3baacd" d="M39.82 169.49c-.24-7.76.53-18.52.29-26.28 12.45-.3 24 .25 36.41-.06a3.1 3.1 0 012.51.9c.71.79.45 2.8.46 3.22.15 8.55.42 13.91.12 22.25-11.68.36-28.15.48-39.79-.03z"/><path fill="#131726" d="M41.32 169.49c-.25-8.76.54-17.52.29-26.28l-1.5 1.5c9-.21 17.9 0 26.86 0h6.58a29.33 29.33 0 013.38-.05c.73.07 1 .26 1.09 1 .16 1.6 0 3.3 0 4.92 0 1.9.09 3.8.13 5.7.09 4.42.08 8.83-.07 13.25l1.5-1.5c-13.25.4-26.55.57-39.79 0-1.93-.09-1.93 2.91 0 3 13.24.6 26.54.43 39.79 0a1.54 1.54 0 001.5-1.5q.21-6.33.08-12.64-.06-3.16-.14-6.31c0-1.72.11-3.52-.06-5.23-.47-4.86-6.48-3.63-9.89-3.6-4.82 0-9.64 0-14.46-.08-5.51 0-11-.08-16.53.05a1.52 1.52 0 00-1.5 1.5c.25 8.76-.54 17.52-.29 26.28.08 1.92 3.08 1.93 3.03-.01z"/><path fill="#131726" d="M40.11 164c12.73 0 25.64-.4 38.37-.4v-4.68l-38.37.46z"/><path fill="#69b2b1" d="M33.71 148.75c1-4.44 26.87-1.76 25.58 7.28a9.66 9.66 0 01-6.6 7.88c-4 1.15-16.41 1.57-19 .48a40 40 0 01.02-15.64z"/><path fill="#131726" d="M35.15 149.15c.06-.21-.06 0-.07.07s.16-.18.2-.2c-.26.16-.06 0 .08 0a2.85 2.85 0 01.3-.16c.05 0-.16.05.1 0a7 7 0 01.89-.27 17.2 17.2 0 014.41-.35 33.06 33.06 0 0111.17 2.1 13.23 13.23 0 014.06 2.3 3.79 3.79 0 011.54 2.91 8.22 8.22 0 01-3 5.65c-1.72 1.41-4 1.72-6.1 2a74.08 74.08 0 01-8.55.44c-1.94 0-4.26.15-6.11-.57l1 1.05a35.23 35.23 0 010-14.85c.4-1.88-2.49-2.69-2.89-.8a40.31 40.31 0 00-.39 13.53 14.89 14.89 0 00.45 2.75c.44 1.26 2 1.36 3.17 1.5a54.11 54.11 0 009.61.11c3-.17 6.31-.26 9.11-1.41 5.12-2.1 9.12-9.42 4.78-14.06-3.42-3.65-9.27-4.88-14-5.48a28 28 0 00-8.18 0c-1.72.29-4 1-4.45 2.9s2.39 2.69 2.87.84z"/><path fill="#f7f2db" d="M62.87 154.86c5.83 0 13 .11 13.12 0s.54-3.41 0-3.63c-.39-.15-8.92-.11-13 0z"/></g>

<g id="hand-commvault"><path fill="#1e273f" d="M40.25 170c-.22-14 .49-33.45.27-47.47 11.51-.55 22.7.14 34.66 0 1 0 1.76.25 1.85 2.51.06 1.58.28 30 0 45-10.79.7-26.03.96-36.78-.04z"/><path fill="#131726" d="M41.75 170c-.23-15.82.51-31.65.27-47.47l-1.5 1.5c7.88-.37 15.76-.17 23.64 0 3.72.06 7.55 0 11.2 0 .34 0 .11.13 0-.08a1.65 1.65 0 01.16.68v1.77c.12 8.78.13 17.56.12 26.34 0 5.78 0 11.56-.14 17.33l1.5-1.5a250.85 250.85 0 01-36.78-.05c-1.92-.17-1.91 2.83 0 3a250.85 250.85 0 0036.78.05 1.54 1.54 0 001.5-1.5c.2-11 .16-22 .11-32.94 0-3.63 0-7.27-.09-10.9a7.16 7.16 0 00-.73-4c-.74-1.1-1.93-1.23-3.14-1.22h-6.4c-9.25-.08-18.51-.43-27.76 0a1.52 1.52 0 00-1.5 1.5c.24 15.82-.5 31.65-.27 47.47.06 2.02 3.06 2.02 3.03.02z"/><path fill="#131726" d="M62.4 148.31c0 1.39 4.3 4.37 5.59 4.86a8.5 8.5 0 014.44 4 10.09 10.09 0 011.4 6.45c0 .57 0 2.24-2.4 2.27-2.18 0-18.52.31-20.29 0-4.44-.78-1.66-6.18-1.3-7.06.53-1.3 6.52-7.5 6.36-10.18"/><path fill="#3baacd" d="M61.78 126.15c3.32.79 8.47 5.17 8.47 11 0 3.4-3.75 12.46-14.94 10.61-5.77-1-9-7.33-8-13.1-.03.04 2.85-11.25 14.47-8.51z"/><path fill="#131726" d="M61.58 126.88c4.58 1.16 8.72 6.64 7.8 11.42a11.18 11.18 0 01-6.92 8.27 12.9 12.9 0 01-8.41.13 9.54 9.54 0 01-5.58-6.16 10.11 10.11 0 01.88-8.72 10.32 10.32 0 0112.23-4.94c.94.21 1.34-1.24.4-1.45-5.15-1.17-10.11.21-13.24 4.58a11.56 11.56 0 00-2 9.76 11.81 11.81 0 005 7.49 13.29 13.29 0 009.33 1.25 12.63 12.63 0 009.54-9c1.64-5.81-2.94-12.62-8.65-14.08a.75.75 0 00-.38 1.45z"/><path fill="#131726" d="M59.49 134.07a3.2 3.2 0 012.22 2.93 3.13 3.13 0 01-3.91 2.78 2.9 2.9 0 01-2.1-3.43 3.07 3.07 0 013.79-2.28z"/><path fill="#ffca30" d="M64.85 160.62a35.8 35.8 0 00-3.14-17.28c4.4 3.36 8.71 10 10.72 16.7a14.47 14.47 0 01-7.58.58z"/><path fill="#131726" d="M65.6 160.62A37.12 37.12 0 0062.36 143l-1.18.91c5.13 4 8.65 10.25 10.53 16.37l.52-.93a13.31 13.31 0 01-7.18.59c-.94-.17-1.35 1.28-.4 1.45a14.85 14.85 0 008-.59.75.75 0 00.52-.92c-2-6.35-5.59-12.9-10.91-17a.75.75 0 00-1.17.9 35.74 35.74 0 013 16.91c-.09.9 1.45.89 1.51-.07z"/><path fill="#f7f2db" d="M45.5 128.49a1.5 1.5 0 000-3 1.5 1.5 0 000 3zM72.09 128.85a1.5 1.5 0 000-3 1.5 1.5 0 000 3zM73 167.92a1.5 1.5 0 000-3 1.5 1.5 0 000 3zM44.25 168.1a1.5 1.5 0 000-3 1.5 1.5 0 000 3z"/><path fill="#69b2b1" d="M37.28 147.59c1-4.45 26.88-1.76 25.59 7.28a9.66 9.66 0 01-6.6 7.87c-4 1.15-16.41 1.57-19 .49a39.86 39.86 0 01.01-15.64z"/><path fill="#131726" d="M38.73 148c.06-.21-.06 0-.07.07s.16-.17.2-.2c-.26.16-.06.05.08 0l.3-.17h.1a7 7 0 01.89-.26 17.16 17.16 0 014.41-.36 33.31 33.31 0 0111.17 2.1 13.23 13.23 0 014.06 2.3 3.8 3.8 0 011.54 2.91 8.22 8.22 0 01-3 5.66c-1.71 1.41-4 1.72-6.09 2a78.84 78.84 0 01-8.55.44c-2 0-4.26.14-6.11-.58l1 1.05a35.23 35.23 0 010-14.85c.4-1.88-2.49-2.68-2.89-.79a40.24 40.24 0 00-.47 13.67 13.48 13.48 0 00.45 2.76c.44 1.25 2 1.35 3.17 1.49a54.11 54.11 0 009.61.11c3-.17 6.31-.26 9.11-1.4 5.12-2.11 9.12-9.42 4.78-14.06-3.42-3.66-9.27-4.88-14-5.48a28.38 28.38 0 00-8.18 0c-1.72.29-4 1-4.45 2.91s2.46 2.54 2.94.68z"/></g>

<g id="hat-commvault"><path fill="#1e273f" d="M130.82 27.06c-16-9.61-48.34-9.69-63.06 4.6A57.69 57.69 0 0051 61.07s38.15 15.15 102.47-.23c-.03 0-6.63-24.17-22.65-33.78z"/><path fill="#131726" d="M131.58 25.76a49.7 49.7 0 00-16.7-5.84A72.75 72.75 0 0095 19.19a57.33 57.33 0 00-18.72 4.94C70 27.07 65.1 31.68 60.86 37a59.49 59.49 0 00-11.34 23.68 1.56 1.56 0 001 1.84 86 86 0 0016.95 4.25 190.7 190.7 0 0047.73 1.75 255.47 255.47 0 0038.58-6.24 1.51 1.51 0 001-1.84 68.62 68.62 0 00-3.34-9.12A68.34 68.34 0 00141.06 34a39.8 39.8 0 00-9.48-8.21 1.5 1.5 0 00-1.51 2.59c10.53 6.4 17 18.49 21 29.83.34 1 .69 2 1 3.06l1-1.85c-20.36 4.85-41.31 7.47-62.26 6.72a147.62 147.62 0 01-34-4.78 53.11 53.11 0 01-5.37-1.7l1.05 1.84a56.48 56.48 0 019-20.26c3.8-5.41 8.51-10.39 14.33-13.55 10.79-5.81 24.18-6.91 36.18-5.2a48.81 48.81 0 0118.06 5.86 1.5 1.5 0 001.52-2.59z"/><path fill="#ee4d6b" d="M101.42 31.36L93.25 37l.75 9.51 9 4.26 8.18-5.64-.77-9.51zm8.19 13l-6.76 4.66-7.42-3.52-.63-7.81 6.76-4.66 7.44 3.56z"/><path fill="#ee4d6b" d="M102.19 47.13a.1.1 0 01-.14.09l-5.21-2.48a.29.29 0 01-.17-.24l-.45-5.57a.1.1 0 01.14-.09l5.22 2.48a.29.29 0 01.17.23zM106.9 37.23l-4.56 3.14a.4.4 0 01-.37 0L97 38a.09.09 0 010-.16l4.55-3.15a.42.42 0 01.38 0l5 2.38a.11.11 0 01-.03.16zM107.46 44.27l-4.13 2.85a.1.1 0 01-.15-.07l-.4-5a.1.1 0 01.14-.09l4.53 2.15a.09.09 0 01.01.16z"/><path fill="#1e273f" d="M52 53.6c35.71 5.59 63.5 6.54 101.12.29a2.11 2.11 0 012.17 1c3.19 5.2 4.74 13.66 5 16.77a1.52 1.52 0 01-1.18 1.61C111.49 83.8 58 76.75 46.76 73.9a3.2 3.2 0 01-2.44-2.06c-.6-1.16.12-11.91 4.79-17A3.36 3.36 0 0152 53.6z"/><path fill="#131726" d="M51.6 55c19.43 3 39 5 58.72 4.59a284.33 284.33 0 0029.87-2.32c2.67-.35 5.32-.72 8-1.12l4.13-.65c.49-.08 1.15-.32 1.59 0s.6.92.79 1.28a40.52 40.52 0 013.6 11.37c.13.7.84 3 .41 3.62-.16.23-1.43.31-1.74.38l-1.75.36c-1.31.27-2.63.52-3.95.77q-7.47 1.36-15 2.23a292.75 292.75 0 01-29.15 1.81 327 327 0 01-47-2.63 119.86 119.86 0 01-12.38-2.12 3.05 3.05 0 01-1.41-.52 2.91 2.91 0 01-.63-1c.19.43.07 0 .06.06s0-.79 0-1.09c0-.66 0-1.32.11-2a26.43 26.43 0 012.61-9.51c.59-1.3 1.72-3.51 3.52-3.41s1.91-2.85 0-3c-4.18-.34-6.5 5-7.62 8.24a30.69 30.69 0 00-1.74 9.9 5.11 5.11 0 00.8 3.09 5.47 5.47 0 003.64 2.19c1.88.44 3.78.78 5.68 1.1a298.9 298.9 0 0045.11 3.7c10.15.14 20.3-.17 30.41-1q7.93-.67 15.83-1.82c2.65-.39 5.3-.83 7.93-1.31 1.32-.24 2.64-.5 4-.76a20.28 20.28 0 004-.92c1.92-.86 1.86-2.75 1.62-4.51a54.12 54.12 0 00-1-5.35 46.89 46.89 0 00-1.93-6.24c-.69-1.76-1.53-4.44-3.24-5.47a4.37 4.37 0 00-3.19-.39c-1.54.24-3.08.5-4.62.73q-4.4.68-8.81 1.22c-5.38.67-10.77 1.21-16.18 1.58a297.82 297.82 0 01-61.94-2.68c-2.76-.38-5.52-.8-8.28-1.23-1.96-.31-2.77 2.58-.87 2.83z"/><path fill="#131726" d="M57.38 74.71c0-6.35 1.29-12.56 2-18.85a1.5 1.5 0 00-1.5-1.5 1.53 1.53 0 00-1.5 1.5c-.71 6.29-2 12.5-2 18.85a1.5 1.5 0 003 0zM74.31 76.53c0-6.58 1-13.1 1-19.68a1.5 1.5 0 00-3 0c0 6.58-1 13.1-1 19.68a1.5 1.5 0 003 0zM92 77.93c-.27-6.38 1-12.79 2.16-19 .36-1.89-2.53-2.69-2.89-.8C90 64.59 88.68 71.3 89 77.93c.08 1.92 3.08 1.94 3 0zM114.49 78.72V58.5a1.5 1.5 0 00-3 0v20.22a1.5 1.5 0 003 0zM136 77.09c0-6.76-1-13.48-1-20.24a1.5 1.5 0 00-3 0c0 6.76 1 13.48 1 20.24a1.5 1.5 0 003 0zM152 74.09c-.72-6.45-2.33-12.77-3-19.24a1.55 1.55 0 00-1.5-1.5 1.5 1.5 0 00-1.5 1.5c.67 6.47 2.28 12.79 3 19.24a1.54 1.54 0 001.5 1.5 1.51 1.51 0 001.5-1.5z"/><path fill="#1e273f" d="M93 20.16a5.7 5.7 0 003.15 4.7 11.42 11.42 0 005.13.8c2.86 0 6-.13 8.14-2.46a8.63 8.63 0 002-6.57 8.84 8.84 0 00-4-6.55 8.75 8.75 0 00-6.74-.85 10.15 10.15 0 00-6 4.12 10.33 10.33 0 00-1.45 8.1"/><path fill="#131726" d="M91.49 20.16a7.34 7.34 0 003 5.47c1.94 1.42 4.43 1.53 6.74 1.53a17 17 0 006-.81 8.43 8.43 0 004.65-4.27A10.61 10.61 0 00109.69 10c-3.36-3.14-8.43-3.15-12.33-1a11.7 11.7 0 00-5.57 12.91c.47 1.87 3.36 1.08 2.9-.8a8.68 8.68 0 013-8.72c2.46-1.95 6.24-2.65 9-.95a7.41 7.41 0 013.11 7.86 6 6 0 01-2.45 3.7 8.5 8.5 0 01-4.18 1.13c-3.15.17-8.33.34-8.68-4-.16-1.91-3.16-1.93-3 0z"/></g>

<g id="hat-elliemae"><path fill="#f7f2db" d="M102.94 50.77c5.23-.33 23.08-.16 35.85-4.88 4.62 3 9.46 7.82 10.17 11.7 0 0 9.44 9 7.75 13.8-.54 1.53-43.36 5.79-67.14 5a217.2 217.2 0 01-39.23-4.62c-3.49-.74 4.13-11.53 4.13-11.53s4.6-10.45 8.78-12.72c0-.05 23.28 4.29 39.69 3.25z"/><path fill="#131726" d="M102.94 52.27c12.2-.75 24.61-.68 36.25-4.93l-1.19-.15a27 27 0 018.3 8 9.21 9.21 0 011 2 3.94 3.94 0 00.64 1.54c.34.41.76.76 1.12 1.15a36.77 36.77 0 014.37 5.42 14.44 14.44 0 011.66 3.22 5.75 5.75 0 01.31 1.35v.61c0 .39-.16.45.21 0 .13-.18.12-.16.35-.21a3.71 3.71 0 00-.47.16 14.47 14.47 0 01-1.45.33c-1.57.32-3.16.55-4.75.77-5.06.68-10.15 1.18-15.24 1.63C121.21 74.2 108.29 75 95.39 75c-7.39 0-14.8-.43-22.16-1.16q-6.44-.65-12.83-1.69-3.39-.57-6.77-1.23l-1.92-.39c-.23 0-.88-.32-1.1-.24.16-.06.3.22.29.22.15.13 0-.08 0 .06a7.84 7.84 0 01.59-2.28A25.22 25.22 0 0153 65.4c.83-1.47 1.81-2.84 2.69-4.28.59-1 1-2.06 1.52-3.07a38.69 38.69 0 014.32-7A9.59 9.59 0 0164 48.77l-1.16.15a213.3 213.3 0 0028.38 3.35 106.38 106.38 0 0011.71 0c1.92-.12 1.93-3.12 0-3-10.31.63-20.75-.46-31-1.91-2.67-.38-5.34-.82-8-1.27-1.31-.23-2.21.47-3.16 1.33A23.08 23.08 0 0057 52.28c-1.47 2.31-2.48 4.85-3.86 7.2a77.94 77.94 0 00-4.06 6.9 9.3 9.3 0 00-1.14 4.27c.15 2.26 2.08 2.54 3.94 2.92q9.63 2 19.42 3c20.46 2.21 41.05 1.33 61.51-.42 7.08-.6 14.24-1.19 21.25-2.45 1.38-.25 3.52-.41 4.1-1.93 1.29-3.4-1.63-7.52-3.56-10.06a50.42 50.42 0 00-3.36-3.95c-.33-.35-.66-.71-1-1a1.7 1.7 0 00-.19-.19c.4-.21.3.9.24.08a3.82 3.82 0 00-.3-.86 19.33 19.33 0 00-4.7-6.59 34.29 34.29 0 00-3.42-3c-1.15-.88-2.3-2.11-3.81-1.66-2.7.8-5.33 1.66-8.09 2.23s-5.59 1-8.4 1.32c-4.75.54-9.52.8-14.29 1-1.44.06-2.89.09-4.33.18-1.95.12-1.95 3.12-.01 3z"/><path fill="#0068ac" d="M84.31 59.25h5.23v1.61h-3.13v1.68h2.11v1.61h-2.11v1.73h3.13v1.69h-5.23zM90.13 59.25H92v8.32h-1.87zM92.76 59.25h1.89v8.32h-1.89zM95.39 59.25h1.89v1.68h-1.89zm0 2.45h1.89v5.87h-1.89zM99.63 65.06c0 .51.1 1.39.85 1.39a1 1 0 001-.81l1.27.47a2.42 2.42 0 01-2.34 1.6c-1.81 0-2.63-1.46-2.63-3.09s.87-3.06 2.6-3.06 2.46 1.57 2.46 3.1v.4zm1.37-1.13c0-.55-.05-1.18-.7-1.18s-.71.64-.71 1.18z"/><path fill="#a7a8ab" d="M103.33 59.25h3l.9 4.66 1.06-4.66h2.87v8.32H109v-6.15l-1.44 6.14h-1.27L105 61.2v6.36h-1.61v-8.31zM114.54 63.45c0-.36-.15-.7-.49-.7s-.59.45-.62.77l-1.64-.34a2.14 2.14 0 012.33-1.63c1.14 0 2.32.49 2.32 1.79v3.27c0 .67.1.87.17.94h-2a4.78 4.78 0 01-.06-.53 1.86 1.86 0 01-1.43.67 1.61 1.61 0 01-1.68-1.8c0-1.58 1.77-2 3-2.07v-.37zm0 1.3c-.73.06-1.16.2-1.16 1.06 0 .41.21.63.55.63a.89.89 0 00.61-.37z"/><path fill="#a7a8ab" d="M118.19 65.06c0 .51.11 1.39.85 1.39a1 1 0 001-.81l1.28.47a2.44 2.44 0 01-2.35 1.6c-1.81 0-2.63-1.46-2.63-3.09s.87-3.06 2.61-3.06 2.45 1.57 2.45 3.1v.4zm1.41-1.13c0-.55-.06-1.18-.71-1.18s-.7.64-.7 1.18z"/><path fill="#a7a8ab" d="M121.47 61.6a.56.56 0 11-.56.56.57.57 0 01.56-.56zm0 1a.41.41 0 000-.82.41.41 0 000 .82zm-.08-.14h-.11v-.54h.21c.13 0 .2 0 .2.16s-.06.15-.12.15l.13.23h-.12l-.12-.22h-.06v.22zm0-.32h.1s.07 0 .07-.06 0-.06-.07-.06h-.1z"/></g>

<g id="hand-elliemae"><path fill="#ffca30" d="M57.17 157.7c7.62-3.64 6.14-11.83 3-16.43-4.56-6.63-18.85-5.27-20.32 6.34-.34 2.71 1.24 12.22 11.8 12.22 3.13 8.58 3.63 11.18 6.43 18.4l4.56 4.13-.58-5.36a19.26 19.26 0 001.41-2.84 16.43 16.43 0 00-3.19-1.57 29.67 29.67 0 011.88-4.43 40.31 40.31 0 01-3.95-2.16c1.75-2.91 1.95-3.73 1-5-.56-.81-3.43-2.63-2.04-3.3zm-4.62-11.11c-1.31 1.86-3.67.81-4-1.11a2.31 2.31 0 012.94-2.42c1.6.36 2 2.17 1.06 3.53z"/><path fill="#131726" d="M57.55 158.35a10.3 10.3 0 005.43-5.9 12.16 12.16 0 00-.17-7.38c-1.37-4.35-4.38-7.58-9-8.34a12.94 12.94 0 00-12 4.24 11.9 11.9 0 00-2.19 11.09c1.68 5.47 6.38 8.46 12 8.52l-.72-.58c1.87 5.14 3.46 10.37 5.33 15.51a12 12 0 001.31 3.24 12.67 12.67 0 001.27 1.15l3.27 3c.43.39 1.35.16 1.28-.53l-.31-3c-.06-.61-.1-1.24-.19-1.84v-.43c0 .21-.2.44.07 0 .43-.66 1.63-2.34 1.27-3.18-.15-.35-.59-.54-.9-.72a24.06 24.06 0 00-2.78-1.28l.44 1.1a40.32 40.32 0 011.88-4.43.77.77 0 00-.44-1.11 34.16 34.16 0 01-3.77-2.14l.27 1c.82-1.37 2.11-3.17 1.51-4.86a4.09 4.09 0 00-1-1.49c-.22-.2-1.71-1.67-1.77-1.63a.75.75 0 00-.76-1.3c-1.74 1 .06 2.74 1 3.58.51.47 1.21 1 1.23 1.73 0 1.09-.94 2.34-1.46 3.22a.74.74 0 00.27 1A36.08 36.08 0 0062 168.9l-.45-1.1a40 40 0 00-1.88 4.43.76.76 0 00.45 1.1 16.66 16.66 0 013 1.5l-.38-.65c0 .61-.89 1.63-1.2 2.27a2 2 0 00-.14 1.27l.48 4.64 1.28-.53L60 179a8.21 8.21 0 01-1.38-1.25 16.24 16.24 0 01-1.16-3.12c-1.8-5-3.34-10.05-5.15-15a.78.78 0 00-.73-.55c-4.53-.05-8.5-2.15-10.22-6.47a10.38 10.38 0 01.57-9.24 11 11 0 019.8-5.32 9.53 9.53 0 018.88 5.59 12.26 12.26 0 011.21 7.09 8.65 8.65 0 01-5.07 6.32c-.83.43-.07 1.73.8 1.3z"/><path fill="#131726" d="M51.9 146.21c-.09.12.07-.08 0 0l-.11.13-.14.13-.06.05c-.08.08 0 0 0 0l-.25.15c-.05.02-.12 0-.13.07s.15-.06.05 0h-.08c-.08 0-.2 0-.26.06h-.29c-.13 0 .16 0 0 0l-.28-.08h-.14.07-.06a2 2 0 01-.25-.14s-.14-.12-.06 0l-.06-.06a2.18 2.18 0 01-.22-.21s0-.07 0 0v-.06a2.75 2.75 0 01-.17-.29v-.07s0 .06 0 0a.25.25 0 000-.07 3.37 3.37 0 01-.1-.34v-.08-.09a.85.85 0 010-.16V145s0 .16 0 0l.09-.32v.06-.06a.8.8 0 01.08-.16l.1-.15.24-.24c.11-.09-.1.07 0 0L50 144l.14-.08h.07c.1-.05 0 0 0 0l.31-.11h.27s-.15 0 0 0H51a.81.81 0 01.17 0s-.18 0 0 0h.11a1.49 1.49 0 01.3.09c.14 0-.11-.06 0 0l.15.08.14.1-.06-.05.21.22v-.06s0 .07.06.09l.08.14s.1.18 0 .07 0 0 0 .08a.94.94 0 010 .16v.52c0 .05 0 .09 0 0a3.38 3.38 0 01-.08.34l-.06.17v-.06.11a4.05 4.05 0 01-.21.35.75.75 0 001.29.75 3.21 3.21 0 00.23-3.37 3.11 3.11 0 00-5.66 1.56 3.29 3.29 0 001.8 2.85 2.86 2.86 0 001.93.23 3 3 0 001.7-1.27.75.75 0 00-.26-1 .77.77 0 00-.94.3z"/><path fill="#131726" d="M52.15 136.37a17 17 0 00-2-4.87c-.74-1.05-2.29-2.09-3.47-1s-.78 3-.53 4.33a34.21 34.21 0 002.11 6.69c.24.59.5 1.18.78 1.75a4.51 4.51 0 001 1.53 1.68 1.68 0 002.57-.57c.41-.87-.89-1.64-1.29-.76-.26.56-.56-.19-.69-.45-.23-.46-.46-.92-.67-1.39-.43-1-.8-2-1.14-3-.63-1.91-1.44-4-1.34-6.07a2.23 2.23 0 01.14-.77c.06-.15.16-.24.13-.23.44-.16.84.27 1.09.59a13.91 13.91 0 011.88 4.59c.28.92 1.73.52 1.45-.4z"/><path fill="#69b2b1" d="M43.51 168.69c1.79 4.18 26.73-3.27 23.78-11.91a9.64 9.64 0 00-8-6.51c-4.14-.39-16.41 1.51-18.75 3a40 40 0 002.97 15.42z"/><path fill="#131726" d="M42.22 169.45c.74 1.57 2.81 1.89 4.35 1.93a24.21 24.21 0 007-1c4.79-1.31 10.31-3.51 13.56-7.44a7 7 0 001.77-6 11.16 11.16 0 00-6.28-7.29c-2.92-1.26-6.21-.89-9.28-.55a70.18 70.18 0 00-10 1.71 11.14 11.14 0 00-3.46 1.19c-1 .67-.82 1.87-.78 2.93a40 40 0 003 14.16 1.55 1.55 0 001.84 1 1.51 1.51 0 001.06-1.8 36 36 0 01-2.87-15l-.75 1.3a16.08 16.08 0 014.91-1.47c2.38-.5 4.79-.88 7.21-1.14a27.56 27.56 0 015.88-.24 8.1 8.1 0 016.15 4.57 4.61 4.61 0 01.54 1.73 3.23 3.23 0 01-.35 1.59 9.35 9.35 0 01-2.87 3.17 30.34 30.34 0 01-10.52 4.74 22.17 22.17 0 01-5.3.82 5.85 5.85 0 01-1.77-.19s-.3-.27-.43-.2c.09-.05.2.32 0-.07-.83-1.71-3.43-.19-2.61 1.55z"/></g>

<g id="hat-trinet"><path fill="#131726" d="M133.81 34.45c-16-9.61-55.35-9.69-70.07 4.6C55.12 47.43 48.35 60.91 48 72.46c0 0 43.16 15.15 107.47-.23-.05 0-5.65-28.17-21.66-37.78zm-16 32.74c-.56.66-32.37.47-32.37.47C84 58.89 90.26 54 99.55 53.42c19.18-1.1 18.72 13.22 18.24 13.77z"/><path fill="#131726" d="M134.56 33.15c-5.37-3.19-11.65-4.82-17.77-5.8a93 93 0 00-22.24-.83 69.57 69.57 0 00-21 4.67 37.2 37.2 0 00-8.32 4.62 41.89 41.89 0 00-8 8.41c-6 8.07-10.41 18.09-10.82 28.24a1.55 1.55 0 001.11 1.45 108.33 108.33 0 0018.65 4.25 214.77 214.77 0 0050.41 1.75 255.75 255.75 0 0039.2-6.24 1.53 1.53 0 001.05-1.84 80 80 0 00-2.83-10.3A69.7 69.7 0 00144.05 42a34.72 34.72 0 00-9.49-8.87c-1.65-1-3.16 1.59-1.51 2.59 6.29 3.83 10.61 10.19 13.86 16.65a87.25 87.25 0 016.24 16.78c.3 1.15.59 2.3.82 3.46l1.03-1.83a241.1 241.1 0 01-63.92 6.72 176.32 176.32 0 01-36.74-4.78c-2-.5-4-1-6-1.7l1.1 1.44c.35-8.61 3.86-17 8.58-24.12a44.22 44.22 0 017.87-9.22 31.4 31.4 0 017.28-4.51 61.8 61.8 0 0119.45-4.91A91.22 91.22 0 01114 30c6.54.85 13.37 2.39 19.09 5.79a1.5 1.5 0 001.47-2.64z"/><path fill="#131726" d="M116.73 66.13c.71-.62.62-.11.27-.28.16.08.37 0 0 0h-.49c-.86.07-1.73.1-2.59.12-2.6.09-5.19.12-7.78.14H85.43l1.44 1.1c-.57-3.74.57-7.43 3.76-9.64 3.67-2.53 8.49-3 12.82-2.71 3.26.2 6.77 1 9.3 3.23a10.61 10.61 0 013.35 5.39 7.28 7.28 0 01.35 2.28v.86s-.09-.34 0 0 .09-.19.08-.18c-1.15 1.55 1.45 3 2.59 1.51.8-1.08.29-3.42 0-4.56a13.6 13.6 0 00-3.77-6.9c-2.89-2.82-6.83-4.07-10.77-4.48-5-.52-10.67 0-15 2.71-4.73 2.94-6.44 8-5.62 13.34a1.5 1.5 0 001.45 1.1c9.49.06 19 .15 28.49-.16 1.39 0 3.82.26 4.94-.75 1.46-1.25-.67-3.4-2.11-2.12zM85.42 68.66c-.35 3.81-.15 5.61-.44 9.93"/><path fill="#131726" d="M83.92 68.66c-.3 3.3-.22 6.62-.44 9.93a1.5 1.5 0 001.5 1.5 1.53 1.53 0 001.5-1.5c.22-3.31.14-6.63.44-9.93a1.51 1.51 0 00-1.5-1.5 1.53 1.53 0 00-1.5 1.5zM117.79 68.19c.66 5.64.66 3.28 1.32 8.74"/><path fill="#131726" d="M116.29 68.19c.19 1.6.38 3.21.7 4.79.1.45.19.9.26 1.36l.16 1.08v.52c0 .33.09.66.13 1a1.54 1.54 0 001.5 1.5c.73 0 1.6-.67 1.5-1.5a59.89 59.89 0 00-.96-6.04c0-.17-.05-.34-.08-.51s0-.19 0-.29 0-.28 0 0c-.09-.62-.15-1.24-.23-1.86a1.54 1.54 0 00-1.5-1.5c-.73 0-1.59.67-1.5 1.5z"/><path fill="#f7f2db" d="M110.23 74.08a1.5 1.5 0 000-3 1.5 1.5 0 000 3zM101.21 74.54a1.5 1.5 0 000-3 1.5 1.5 0 000 3zM92.81 74.54a1.5 1.5 0 000-3 1.5 1.5 0 000 3z"/><path fill="#f26d2a" d="M100.49 35.87l6.77 4.35-6.77-7.22zm3.76 7.91l4-2.54L96.94 34v4.25a1.59 1.59 0 00.67 1.26l2.64 1.69zm-6.25-1a2.15 2.15 0 00-1 1.57v4.13l7-4.48-4-2.53z"/></g>

<g id="extra-trinet"><path fill="#1e273f" d="M45.76 71.28c-.1-15.28 17.09-36.94 57.32-36.43 36.91.46 52.82 26.39 53.57 37.23h6.28s-4-43.92-61.05-43.9c0 0-58.22-2.22-62.56 43z"/><path fill="#131726" d="M47.26 71.28c0-6.6 3.21-13.06 7.63-18C61.43 46 70.5 41.43 79.88 39a83 83 0 0119.53-2.6 73.12 73.12 0 0119.78 2 54.09 54.09 0 0126 15c4.51 4.78 8.56 10.79 9.8 17.29a7.67 7.67 0 01.18 1.4 1.53 1.53 0 001.5 1.5h6.28a1.51 1.51 0 001.5-1.5 44.8 44.8 0 00-5.16-16 52.31 52.31 0 00-27.58-24.31c-11-4.34-23.2-5.54-35-5a86.79 86.79 0 00-31.59 7.16 50.49 50.49 0 00-16.19 11.37A42.21 42.21 0 0038.78 65a55 55 0 00-1 6.24 1.51 1.51 0 001.5 1.5l6.44.08a1.5 1.5 0 000-3l-6.44-.08 1.5 1.5a41.44 41.44 0 017.74-20.78 43.75 43.75 0 0114.62-12.21c9.57-5.14 20.59-7.56 31.2-8.34a88.43 88.43 0 0130.87 2.78c12.31 3.55 23.22 11 29.89 22.05a46.86 46.86 0 015 11.13 40.3 40.3 0 011.26 5.38c0 .17.05.33.07.49.05.31 0 0 0-.16a1.25 1.25 0 010 .19 1.78 1.78 0 000 .3l1.5-1.5h-6.28l1.5 1.5c-.5-6.75-4.43-13.17-8.63-18.28a55.49 55.49 0 00-25.17-17c-13-4.37-27.51-4.41-40.84-1.76C73 37.13 62.63 41.5 54.83 49c-5.49 5.29-9.68 12.27-10.46 20a19.57 19.57 0 00-.11 2.3 1.5 1.5 0 003-.02z"/><path fill="#1e273f" d="M48 72s.93 41.18 0 42.87-14.61-.66-16.75-4.18C29.93 108.52 29.12 81 33 75.37c0 0 5.56-6.37 15-3.37z"/><path fill="#131726" d="M46.52 72q.18 8.33.3 16.64c.1 7.85.33 15.74 0 23.58 0 .51 0 1-.09 1.51 0 .11-.08.65 0 .36s0 .15 0 .21c-.24.35.41-.49.42-.52s.15 0 0 0-.52.11-.25.07a11.47 11.47 0 01-2.62 0 31.73 31.73 0 01-6.74-1.36 17.59 17.59 0 01-3-1.19 14.08 14.08 0 01-1.76-1.22c-.06 0-.08-.15-.12-.22.24.37.08.25 0 .08s-.11-.42-.16-.64a14 14 0 01-.24-1.61 80.45 80.45 0 01-.39-5.58 130.49 130.49 0 01.2-14.8c.28-3.7.75-7.68 2.14-10.88.19-.43-.11.07 0-.1a4.68 4.68 0 01.39-.38 9 9 0 011.51-1.18 12.53 12.53 0 016.54-2.08 15.07 15.07 0 015 .78c1.85.58 2.64-2.32.8-2.9a16.21 16.21 0 00-15.64 2.93c-2.38 2.06-2.84 5.68-3.26 8.63a105.18 105.18 0 00-.85 15.67 65.41 65.41 0 00.79 12.2c.77 3.89 6 5.19 9.28 6a28.78 28.78 0 007.09 1c1.4 0 3.2-.21 3.66-1.79a12.24 12.24 0 00.28-2.83c.07-1.58.09-3.16.11-4.73.05-4.5 0-9 0-13.49-.07-7.22-.05-14.47-.35-21.69v-.38c-.08-1.98-3.08-1.98-3.04-.09z"/><path fill="#1e273f" d="M152.18 72s-.93 41.18 0 42.87 14.61-.66 16.75-4.18c1.34-2.21 2.15-29.71-1.75-35.36 0 .04-5.55-6.33-15-3.33z"/><path fill="#131726" d="M150.68 72q-.21 9.25-.32 18.52c-.06 4.66-.11 9.33-.09 14 0 3.11-.07 6.26.23 9.35.1 1.08.23 2 1.29 2.59 1.7.89 4.16.43 6 .18a33.56 33.56 0 007.44-1.82c1.78-.68 4.09-1.62 5.07-3.41a10.55 10.55 0 00.79-3.73c.23-2 .33-4 .41-6.08a127.83 127.83 0 00-.35-15.78 53.8 53.8 0 00-1-6.93 11 11 0 00-1.87-4.62c-2.63-3.07-7.22-4.63-11.14-4.6a18.82 18.82 0 00-5.31.89c-1.84.58-1.05 3.48.8 2.9 4.54-1.43 9.64-.77 13.08 2.48l.37.37c.12.13-.14-.34.06.11a14.7 14.7 0 01.72 1.76 32.47 32.47 0 011.09 5.69 113.36 113.36 0 01.62 14.74c0 2.19-.11 4.39-.26 6.59a28.77 28.77 0 01-.47 4.09c0 .2-.1.4-.14.6s-.14.37 0 .09 0 0-.08.09a13.37 13.37 0 01-1.76 1.22 24.45 24.45 0 01-6.64 2.09 17.17 17.17 0 01-5.75.48h-.19c-.26 0 0 0 0 0l.38.5a.93.93 0 01-.06-.34c.06.53 0 0 0-.23-.58-7.22-.24-14.58-.15-21.82.07-6.51.38-13 .33-19.56v-.35c-.06-1.95-3.06-1.95-3.1-.06z"/><path fill="#131726" d="M120.18 147.79a37 37 0 0010.46.51 89.53 89.53 0 0012.54-1.46c3.44-.67 6.64-1.63 9.18-4.17 2.95-3 4.67-7 5.81-11a62.83 62.83 0 002.19-17.26 1.5 1.5 0 00-3 0 63.19 63.19 0 01-1.5 14.25c-.89 3.81-2.21 7.81-4.73 10.87-2.12 2.56-4.74 3.54-7.9 4.2a77.46 77.46 0 01-11.23 1.49c-3.58.23-7.49.53-11-.32-1.87-.46-2.67 2.43-.79 2.89z"/><path fill="#1e273f" d="M122.24 143.23c.86.21.3 6.85 0 7.3s-7.32.17-10.37.22c-3.6.07-4.64-5.92-.87-7.83 0 0 6.9-.77 11.24.31z"/><path fill="#131726" d="M121.84 144.67a1.33 1.33 0 01-.74-.56c.12.2-.08-.16-.07-.19a2 2 0 00.1.39c.07.28 0-.19 0-.09v.89a25.12 25.12 0 01-.09 2.88q0 .64-.12 1.29v-.06a1.43 1.43 0 000 .23c0 .13 0 .27-.07.4s-.15.34 0 .06a1.8 1.8 0 01.53-.62s.43-.11.21-.1h-.15c-.28.07.13-.05.15 0a5.13 5.13 0 00-.52 0c-2.19.14-4.39 0-6.58 0-1 0-2-.09-3 0 .23 0 .17 0 0 0a1.71 1.71 0 00-.3-.09c.21 0 .17.09 0 0s-.19-.13-.29-.18.09.07.1.08a1 1 0 01-.11-.1l-.21-.21-.1-.12s.14.24.08.1-.14-.2-.19-.3l-.11-.2c.1.19-.06-.15-.08-.22l-.1-.36c-.03-.12-.08-.5-.06-.29s0-.17 0-.24a2.54 2.54 0 010-.39c0-.15.05-.41 0-.11 0-.13 0-.26.08-.39s.07-.25.11-.38a1 1 0 000-.16c.07-.2-.11.23 0 0a6.77 6.77 0 01.41-.7v.07l.16-.18c.09-.11.2-.2.3-.3l.14-.12c-.11.09-.12.08 0 0s.3-.18.46-.26l-.76.21c1.3-.15 2.61-.22 3.92-.25s2.38 0 3.57 0c.61 0 1.22.09 1.83.17h.21l.45.08c.29 0 .58.11.86.18a1.53 1.53 0 001.85-1 1.52 1.52 0 00-1-1.84 34.52 34.52 0 00-11-.42 3.8 3.8 0 00-1.38.26 5.76 5.76 0 00-2.11 1.9 6.18 6.18 0 00-.79 5 4.88 4.88 0 003.38 3.56 9.91 9.91 0 002.37.13h2.64c1.68 0 3.37.06 5 0 1.27-.06 2.67-.15 3-1.65a22 22 0 00.41-4.52c0-1.46.15-3.75-1.55-4.32a1.5 1.5 0 00-.8 2.89z"/></g>

<g id="hand-loan"><path fill="#f7f2db" d="M40.69 174.93c-.3-19-.6-40.48-.9-59.51 15.87-.75 26.74.4 42.6-.34 1.44-.07 3.11 0 4 .94.75.81.58 2 .58 3 .2 20.94.54 35.53.16 56-14.89.87-31.85 1.54-46.69.22"/><path fill="#131726" d="M42.19 174.93l-.7-46.6-.2-12.91-1.5 1.5c13.71-.63 27.42.27 41.13-.28 1.12 0 3.27-.52 4.22.25.44.36.36.92.36 1.43v3.17c0 3.56.07 7.13.12 10.69.07 6.55.15 13.1.17 19.64q0 11.6-.16 23.18l1.5-1.5c-15.53.91-31.17 1.58-46.69.22-1.93-.17-1.92 2.83 0 3 15.52 1.36 31.16.69 46.69-.22a1.54 1.54 0 001.5-1.5c.26-14.13.15-28.25 0-42.37 0-3.88-.09-7.75-.13-11.63a18 18 0 00-.17-4.47A4.08 4.08 0 0085 113.7a20.45 20.45 0 00-4.56 0q-3 .12-6.06.15H64.02c-8.08-.11-16.15-.24-24.23.13a1.52 1.52 0 00-1.5 1.5q.36 23.29.7 46.6l.2 12.91c0 1.93 3 1.94 3 0z"/><path fill="#131726" d="M74.8 126.4h6.13a1.5 1.5 0 000-3H74.8a1.5 1.5 0 100 3zM74.44 132.4h6.49a1.5 1.5 0 000-3h-6.49a1.5 1.5 0 000 3zM46.63 139.71h34.55a1.5 1.5 0 000-3H46.63a1.5 1.5 0 000 3zM46.91 147.72h33.92a1.5 1.5 0 000-3H46.91a1.5 1.5 0 000 3zM64.83 156.45h16a1.5 1.5 0 000-3h-16a1.5 1.5 0 000 3z"/><path fill="#69b2b1" d="M33.88 153.8c1-4.44 26.87-1.75 25.58 7.28a9.66 9.66 0 01-6.6 7.88c-4 1.15-16.41 1.57-19 .49a40 40 0 01.02-15.65z"/><path fill="#131726" d="M35.32 154.2c.06-.21-.06 0-.07.07s.16-.17.2-.2c-.26.16-.06.05.08 0a2.85 2.85 0 01.3-.16h.1a9.13 9.13 0 01.89-.27 17.2 17.2 0 014.41-.35 33.06 33.06 0 0111.17 2.1 13.23 13.23 0 014.06 2.3 3.79 3.79 0 011.54 2.83 8.22 8.22 0 01-3 5.65c-1.72 1.42-4 1.73-6.1 2a74.08 74.08 0 01-8.55.44c-1.95 0-4.26.15-6.11-.57l1.05 1.05a35.23 35.23 0 010-14.85c.4-1.88-2.49-2.69-2.89-.8a40.31 40.31 0 00-.4 13.64 14.32 14.32 0 00.45 2.76c.44 1.25 2 1.35 3.17 1.49a54.11 54.11 0 009.61.11c3-.17 6.31-.26 9.11-1.41 5.12-2.1 9.12-9.42 4.78-14.06-3.42-3.65-9.27-4.88-14-5.47a28 28 0 00-8.18 0c-1.72.29-4 1-4.45 2.9s2.35 2.67 2.83.8z"/><path fill="#69b2b1" d="M68.91 170.86c-.1 3-1.07 6.21-.89 11 1.4-1.25 4.25-2.62 5.64-3.87 1.82 1.35 4 1.92 5.8 3.38.2-4-1.37-6.42-1.33-10.48"/><path fill="#131726" d="M68.16 170.86c-.06 1.62-.34 3.23-.55 4.84a36.89 36.89 0 00-.34 6.12.77.77 0 001.29.53c1.71-1.51 3.91-2.36 5.63-3.87l-.91.11c1.82 1.33 4 2 5.8 3.39.48.37 1.11-.15 1.13-.65.15-3.58-1.34-6.92-1.33-10.48a.75.75 0 00-1.5 0c0 3.56 1.48 6.91 1.33 10.48l1.13-.65c-1.79-1.38-4-2.06-5.81-3.38a.74.74 0 00-.9.12c-1.72 1.51-3.92 2.36-5.64 3.87l1.28.53a36.89 36.89 0 01.34-6.12c.21-1.61.49-3.22.55-4.84 0-1-1.46-1-1.5 0z"/><path fill="#ffca30" d="M68 170c1.73 3.58 7.21 4 10 1.37 1.88-1.74 2.79-6.19.29-8.77a7.44 7.44 0 00-8.36-1.09S65.2 164.24 68 170z"/><path fill="#131726" d="M67.34 170.41c1.42 2.85 4.87 3.85 7.82 3.23a6.65 6.65 0 003.84-2.18 7.6 7.6 0 001.59-4.33 6.72 6.72 0 00-1.44-4.71 7 7 0 00-4.42-2.33 7.34 7.34 0 00-6.22 1.65 6.7 6.7 0 00-1.89 3.14 8.17 8.17 0 00.77 5.53c.41.87 1.71.11 1.3-.76-1-2.14-1.1-4.63.46-6.41a6.64 6.64 0 01.76-.74c.19-.17 0 0 .16-.13l.2-.13a5.62 5.62 0 012.74-.76c2.85-.11 5.7 1.41 6.06 4.45a5.5 5.5 0 01-3.27 6c-2.53.93-5.83.33-7.11-2.26-.48-.88-1.78-.12-1.35.74zM45.17 122.23v8.65a1.15 1.15 0 001.3 1.12h3.37a.75.75 0 000-1.5h-2.53a5.51 5.51 0 01-.9 0l.27.27c0 .12 0 .11 0 0v-8.48a.75.75 0 00-1.5 0zM53.33 123a1.54 1.54 0 011.74.84 6.42 6.42 0 01.44 2.57c0 .65.08 1.3.07 2a3.08 3.08 0 01-.39 1.75 1.15 1.15 0 01-.48.35 2.06 2.06 0 01-1.18.06c-.75-.18-1-1-1.18-1.68-.06-.2-.1-.41-.14-.61 0 .16 0 .1 0 0v-.45-1.64a7.52 7.52 0 01.37-2.2 1.8 1.8 0 01.16-.38 2.08 2.08 0 01.2-.31 1.85 1.85 0 01.14-.14c.07-.06.07-.06 0 0l.11-.06s.21-.09.05 0c0 0 .3-.06.13 0a.78.78 0 00.75-.75.75.75 0 00-.75-.75c-1.93.24-2.43 2.29-2.6 3.92a11 11 0 00.13 3.66 3.76 3.76 0 001.78 2.7 3.32 3.32 0 003.16-.21c1.52-1.08 1.29-3.19 1.22-4.83a9 9 0 00-.63-3.61 3 3 0 00-3.06-1.63c-.99-.02-1 1.48-.04 1.4zM59.11 131.39a72.06 72.06 0 012.11-8.91l-1.38.18c1.3 2.91 1.85 6.1 2.76 9.14.28.92 1.73.52 1.45-.4-.95-3.17-1.56-6.46-2.91-9.49-.27-.61-1.22-.4-1.37.18a74.19 74.19 0 00-2.16 9.3.75.75 0 001.5 0zM66.33 131.6c-.23-3.13-.13-6.26-.33-9.38l-1.4.38c1.46 3.13 2.89 6.29 4.46 9.37a.76.76 0 001.4-.37q.11-4.69-.19-9.38c-.06-1-1.56-1-1.5 0q.3 4.68.19 9.38l1.4-.38c-1.57-3.09-3-6.24-4.46-9.38a.76.76 0 00-1.4.38c.2 3.12.1 6.25.33 9.38.07 1 1.57 1 1.5 0z"/><path fill="#131726" d="M59 129.68h3.17a.75.75 0 00.75-.75.76.76 0 00-.75-.75H59a.75.75 0 100 1.5z"/></g>

</g>
</svg>